%
M48
M72
T01C0.0200
T02C0.0320
T03C0.0394
T04C0.0400
T05C0.1300
%
T01
X9113Y4500
X11363Y4500
X11863Y4500
X16363Y7000
X19613Y4500
X22363Y5250
X22613Y4250
X23113Y3000
X25363Y3750
X25863Y4500
X26863Y4500
X27863Y4500
X24113Y6250
X26863Y8000
X27613Y8250
X23613Y10250
X24863Y15500
X25863Y16750
X26363Y17250
X25613Y18750
X26863Y19250
T02
X18863Y14250
X17863Y14250
X16863Y14250
X15863Y14250
X14863Y14250
X13863Y14250
X12863Y14250
X11863Y14250
X10863Y14250
X9863Y14250
X9863Y11250
X10863Y11250
X11863Y11250
X12863Y11250
X13863Y11250
X14863Y11250
X15863Y11250
X16863Y11250
X17863Y11250
X18863Y11250
X25613Y12500
X26613Y12500
X26613Y9500
X25613Y9500
T03
X7113Y1250
X8113Y1250
X9113Y1250
X10113Y1250
X11113Y1250
X12113Y1250
X13113Y1250
X14113Y1250
X15113Y1250
X16113Y1250
X17113Y1250
X18113Y1250
X19113Y1250
X20113Y1250
X21113Y1250
X22113Y1250
X23113Y1250
X24113Y1250
X25113Y1250
X26113Y1250
X27113Y1250
X28113Y1250
X29113Y1250
X29113Y2250
X28113Y2250
X27113Y2250
X26113Y2250
X25113Y2250
X24113Y2250
X23113Y2250
X22113Y2250
X21113Y2250
X20113Y2250
X19113Y2250
X18113Y2250
X17113Y2250
X16113Y2250
X15113Y2250
X14113Y2250
X13113Y2250
X12113Y2250
X11113Y2250
X10113Y2250
X9113Y2250
X8113Y2250
X7113Y2250
X7113Y20250
X8113Y20250
X9113Y20250
X10113Y20250
X11113Y20250
X12113Y20250
X13113Y20250
X14113Y20250
X15113Y20250
X16113Y20250
X17113Y20250
X18113Y20250
X19113Y20250
X20113Y20250
X21113Y20250
X22113Y20250
X23113Y20250
X24113Y20250
X25113Y20250
X26113Y20250
X27113Y20250
X28113Y20250
X29113Y20250
X29113Y21250
X28113Y21250
X27113Y21250
X26113Y21250
X25113Y21250
X24113Y21250
X23113Y21250
X22113Y21250
X21113Y21250
X20113Y21250
X19113Y21250
X18113Y21250
X17113Y21250
X16113Y21250
X15113Y21250
X14113Y21250
X13113Y21250
X12113Y21250
X11113Y21250
X10113Y21250
X9113Y21250
X8113Y21250
X7113Y21250
T04
X9863Y16750
X10863Y16750
X11863Y16750
X12863Y16750
X13863Y16750
X14863Y16750
X15863Y16750
X16863Y16750
X17863Y16750
X18863Y16750
X20973Y15720
X22753Y15720
X23113Y13750
X23113Y12750
X21113Y12750
X21113Y11750
X20973Y10030
X22753Y10030
X18863Y8750
X17863Y8750
X16863Y8750
X15863Y8750
X14863Y8750
X13863Y8750
X12863Y8750
X11863Y8750
X10863Y8750
X9863Y8750
X6922Y9319
X5804Y9866
X6922Y10409
X5804Y10957
X6922Y11500
X5804Y12043
X6922Y12591
X5804Y13134
X6922Y13681
X16113Y6250
X16113Y5250
X18613Y5250
X18613Y6250
X20973Y7470
X22753Y7470
X21113Y13750
X20973Y18280
X22753Y18280
T05
X6363Y16421
X6363Y6579
M30
