G75*
G70*
%OFA0B0*%
%FSLAX24Y24*%
%IPPOS*%
%LPD*%
%AMOC8*
5,1,8,0,0,1.08239X$1,22.5*
%
%ADD10C,0.0060*%
%ADD11C,0.0080*%
D10*
X008127Y004632D02*
X008127Y004868D01*
X008599Y004868D02*
X008599Y004632D01*
X008745Y006514D02*
X008981Y006514D01*
X008981Y006986D02*
X008745Y006986D01*
X009877Y006882D02*
X009877Y007118D01*
X010349Y007118D02*
X010349Y006882D01*
X011245Y006986D02*
X011481Y006986D01*
X011481Y006514D02*
X011245Y006514D01*
X012377Y006882D02*
X012377Y007118D01*
X012849Y007118D02*
X012849Y006882D01*
X016245Y004236D02*
X016481Y004236D01*
X016481Y003764D02*
X016245Y003764D01*
X018745Y003764D02*
X018981Y003764D01*
X018981Y004236D02*
X018745Y004236D01*
X023877Y004632D02*
X023877Y004868D01*
X024349Y004868D02*
X024349Y004632D01*
X024877Y004632D02*
X024877Y004868D01*
X025349Y004868D02*
X025349Y004632D01*
X026127Y003868D02*
X026127Y003632D01*
X026599Y003632D02*
X026599Y003868D01*
X027127Y003868D02*
X027127Y003632D01*
X027599Y003632D02*
X027599Y003868D01*
X028127Y003868D02*
X028127Y003632D01*
X028599Y003632D02*
X028599Y003868D01*
X027599Y014632D02*
X027599Y014868D01*
X027127Y014868D02*
X027127Y014632D01*
X026599Y014632D02*
X026599Y014868D01*
X026127Y014868D02*
X026127Y014632D01*
X025599Y014632D02*
X025599Y014868D01*
X025127Y014868D02*
X025127Y014632D01*
X027627Y016882D02*
X027627Y017118D01*
X028099Y017118D02*
X028099Y016882D01*
X028099Y018132D02*
X028099Y018368D01*
X027627Y018368D02*
X027627Y018132D01*
X027349Y018132D02*
X027349Y018368D01*
X026877Y018368D02*
X026877Y018132D01*
X026599Y018132D02*
X026599Y018368D01*
X026127Y018368D02*
X026127Y018132D01*
D11*
X023533Y005516D02*
X020193Y005516D01*
X020170Y005514D01*
X020147Y005509D01*
X020125Y005500D01*
X020105Y005487D01*
X020087Y005472D01*
X020072Y005454D01*
X020059Y005434D01*
X020050Y005412D01*
X020045Y005389D01*
X020043Y005366D01*
X020043Y004134D01*
X020042Y004113D01*
X020044Y004092D01*
X020049Y004072D01*
X020057Y004053D01*
X020068Y004036D01*
X020081Y004020D01*
X020097Y004007D01*
X020115Y003996D01*
X020134Y003988D01*
X020154Y003983D01*
X020154Y003984D02*
X023533Y003984D01*
X023533Y003983D02*
X023554Y003982D01*
X023575Y003984D01*
X023595Y003989D01*
X023614Y003997D01*
X023631Y004008D01*
X023647Y004021D01*
X023660Y004037D01*
X023671Y004055D01*
X023679Y004074D01*
X023684Y004094D01*
X023683Y004094D02*
X023683Y004490D01*
X023663Y004490D02*
X023633Y004492D01*
X023603Y004497D01*
X023574Y004506D01*
X023547Y004519D01*
X023521Y004534D01*
X023497Y004553D01*
X023476Y004574D01*
X023457Y004598D01*
X023442Y004624D01*
X023429Y004651D01*
X023420Y004680D01*
X023415Y004710D01*
X023413Y004740D01*
X023415Y004770D01*
X023420Y004800D01*
X023429Y004829D01*
X023442Y004856D01*
X023457Y004882D01*
X023476Y004906D01*
X023497Y004927D01*
X023521Y004946D01*
X023547Y004961D01*
X023574Y004974D01*
X023603Y004983D01*
X023633Y004988D01*
X023663Y004990D01*
X023683Y004990D02*
X023683Y005322D01*
X023684Y005327D02*
X023685Y005352D01*
X023683Y005376D01*
X023677Y005400D01*
X023668Y005422D01*
X023655Y005443D01*
X023640Y005462D01*
X023622Y005479D01*
X023602Y005493D01*
X023581Y005504D01*
X023558Y005512D01*
X023534Y005517D01*
X013183Y005366D02*
X013183Y004134D01*
X013181Y004111D01*
X013176Y004088D01*
X013167Y004066D01*
X013154Y004046D01*
X013139Y004028D01*
X013121Y004013D01*
X013101Y004000D01*
X013079Y003991D01*
X013056Y003986D01*
X013033Y003984D01*
X009193Y003984D01*
X009193Y003983D02*
X009169Y003988D01*
X009146Y003996D01*
X009125Y004007D01*
X009105Y004021D01*
X009087Y004038D01*
X009072Y004057D01*
X009059Y004078D01*
X009050Y004100D01*
X009044Y004124D01*
X009042Y004148D01*
X009043Y004173D01*
X009043Y004178D02*
X009043Y004510D01*
X009063Y004510D02*
X009093Y004512D01*
X009123Y004517D01*
X009152Y004526D01*
X009179Y004539D01*
X009205Y004554D01*
X009229Y004573D01*
X009250Y004594D01*
X009269Y004618D01*
X009284Y004644D01*
X009297Y004671D01*
X009306Y004700D01*
X009311Y004730D01*
X009313Y004760D01*
X009311Y004790D01*
X009306Y004820D01*
X009297Y004849D01*
X009284Y004876D01*
X009269Y004902D01*
X009250Y004926D01*
X009229Y004947D01*
X009205Y004966D01*
X009179Y004981D01*
X009152Y004994D01*
X009123Y005003D01*
X009093Y005008D01*
X009063Y005010D01*
X009043Y005010D02*
X009043Y005406D01*
X009042Y005406D02*
X009047Y005426D01*
X009055Y005445D01*
X009066Y005463D01*
X009079Y005479D01*
X009095Y005492D01*
X009112Y005503D01*
X009131Y005511D01*
X009151Y005516D01*
X009172Y005518D01*
X009193Y005517D01*
X009193Y005516D02*
X013073Y005516D01*
X013073Y005517D02*
X013093Y005512D01*
X013112Y005504D01*
X013130Y005493D01*
X013146Y005480D01*
X013159Y005464D01*
X013170Y005447D01*
X013178Y005428D01*
X013183Y005408D01*
X013185Y005387D01*
X013184Y005366D01*
M02*
