G75*
G70*
%OFA0B0*%
%FSLAX24Y24*%
%IPPOS*%
%LPD*%
%AMOC8*
5,1,8,0,0,1.08239X$1,22.5*
%
%ADD10C,0.0050*%
D10*
X007613Y000500D02*
X030863Y000500D01*
X030863Y005500D01*
X030756Y005503D01*
X030649Y005510D01*
X030543Y005523D01*
X030437Y005541D01*
X030333Y005563D01*
X030229Y005591D01*
X030127Y005624D01*
X030027Y005661D01*
X029928Y005703D01*
X029832Y005750D01*
X029738Y005801D01*
X029647Y005857D01*
X029558Y005917D01*
X029472Y005981D01*
X029390Y006050D01*
X029310Y006122D01*
X029235Y006197D01*
X029163Y006277D01*
X029094Y006359D01*
X029030Y006445D01*
X028970Y006534D01*
X028914Y006625D01*
X028863Y006719D01*
X028816Y006815D01*
X028774Y006914D01*
X028737Y007014D01*
X028704Y007116D01*
X028676Y007220D01*
X028654Y007324D01*
X028636Y007430D01*
X028623Y007536D01*
X028616Y007643D01*
X028613Y007750D01*
X028613Y014750D01*
X028616Y014857D01*
X028623Y014964D01*
X028636Y015070D01*
X028654Y015176D01*
X028676Y015280D01*
X028704Y015384D01*
X028737Y015486D01*
X028774Y015586D01*
X028816Y015685D01*
X028863Y015781D01*
X028914Y015875D01*
X028970Y015966D01*
X029030Y016055D01*
X029094Y016141D01*
X029163Y016223D01*
X029235Y016303D01*
X029310Y016378D01*
X029390Y016450D01*
X029472Y016519D01*
X029558Y016583D01*
X029647Y016643D01*
X029738Y016699D01*
X029832Y016750D01*
X029928Y016797D01*
X030027Y016839D01*
X030127Y016876D01*
X030229Y016909D01*
X030333Y016937D01*
X030437Y016959D01*
X030543Y016977D01*
X030649Y016990D01*
X030756Y016997D01*
X030863Y017000D01*
X030863Y022000D01*
X007613Y022000D01*
X007375Y021994D01*
X007138Y021977D01*
X006901Y021949D01*
X006667Y021910D01*
X006434Y021859D01*
X006204Y021797D01*
X005978Y021725D01*
X005755Y021642D01*
X005536Y021548D01*
X005322Y021444D01*
X005113Y021330D01*
X004910Y021206D01*
X004713Y021073D01*
X004522Y020930D01*
X004339Y020779D01*
X004163Y020619D01*
X003994Y020450D01*
X003834Y020274D01*
X003683Y020091D01*
X003540Y019900D01*
X003407Y019703D01*
X003283Y019500D01*
X003169Y019291D01*
X003065Y019077D01*
X002971Y018858D01*
X002888Y018635D01*
X002816Y018409D01*
X002754Y018179D01*
X002703Y017946D01*
X002664Y017712D01*
X002636Y017475D01*
X002619Y017238D01*
X002613Y017000D01*
X002613Y005500D01*
X002619Y005262D01*
X002636Y005025D01*
X002664Y004788D01*
X002703Y004554D01*
X002754Y004321D01*
X002816Y004091D01*
X002888Y003865D01*
X002971Y003642D01*
X003065Y003423D01*
X003169Y003209D01*
X003283Y003000D01*
X003407Y002797D01*
X003540Y002600D01*
X003683Y002409D01*
X003834Y002226D01*
X003994Y002050D01*
X004163Y001881D01*
X004339Y001721D01*
X004522Y001570D01*
X004713Y001427D01*
X004910Y001294D01*
X005113Y001170D01*
X005322Y001056D01*
X005536Y000952D01*
X005755Y000858D01*
X005978Y000775D01*
X006204Y000703D01*
X006434Y000641D01*
X006667Y000590D01*
X006901Y000551D01*
X007138Y000523D01*
X007375Y000506D01*
X007613Y000500D01*
M02*
