G75*
G70*
%OFA0B0*%
%FSLAX24Y24*%
%IPPOS*%
%LPD*%
%AMOC8*
5,1,8,0,0,1.08239X$1,22.5*
%
%ADD10C,0.0060*%
%ADD11C,0.0080*%
%ADD12R,0.0400X0.0150*%
%ADD13C,0.0020*%
%ADD14C,0.0050*%
D10*
X006613Y001000D02*
X006613Y002500D01*
X006863Y002750D01*
X007363Y002750D01*
X007613Y002500D01*
X007613Y001000D01*
X007363Y000750D01*
X006863Y000750D01*
X006613Y001000D01*
X007613Y001000D02*
X007863Y000750D01*
X008363Y000750D01*
X008613Y001000D01*
X008613Y002500D01*
X008363Y002750D01*
X007863Y002750D01*
X007613Y002500D01*
X008613Y002500D02*
X008863Y002750D01*
X009363Y002750D01*
X009613Y002500D01*
X009613Y001000D01*
X009363Y000750D01*
X008863Y000750D01*
X008613Y001000D01*
X009613Y001000D02*
X009863Y000750D01*
X010363Y000750D01*
X010613Y001000D01*
X010613Y002500D01*
X010363Y002750D01*
X009863Y002750D01*
X009613Y002500D01*
X010613Y002500D02*
X010863Y002750D01*
X011363Y002750D01*
X011613Y002500D01*
X011613Y001000D01*
X011363Y000750D01*
X010863Y000750D01*
X010613Y001000D01*
X011613Y001000D02*
X011863Y000750D01*
X012363Y000750D01*
X012613Y001000D01*
X012613Y002500D01*
X012363Y002750D01*
X011863Y002750D01*
X011613Y002500D01*
X012613Y002500D02*
X012863Y002750D01*
X013363Y002750D01*
X013613Y002500D01*
X013613Y001000D01*
X013363Y000750D01*
X012863Y000750D01*
X012613Y001000D01*
X013613Y001000D02*
X013863Y000750D01*
X014363Y000750D01*
X014613Y001000D01*
X014613Y002500D01*
X014863Y002750D01*
X015363Y002750D01*
X015613Y002500D01*
X015613Y001000D01*
X015363Y000750D01*
X014863Y000750D01*
X014613Y001000D01*
X015613Y001000D02*
X015863Y000750D01*
X016363Y000750D01*
X016613Y001000D01*
X016613Y002500D01*
X016863Y002750D01*
X017363Y002750D01*
X017613Y002500D01*
X017613Y001000D01*
X017363Y000750D01*
X016863Y000750D01*
X016613Y001000D01*
X017613Y001000D02*
X017863Y000750D01*
X018363Y000750D01*
X018613Y001000D01*
X018613Y002500D01*
X018863Y002750D01*
X019363Y002750D01*
X019613Y002500D01*
X019613Y001000D01*
X019363Y000750D01*
X018863Y000750D01*
X018613Y001000D01*
X019613Y001000D02*
X019863Y000750D01*
X020363Y000750D01*
X020613Y001000D01*
X020613Y002500D01*
X020863Y002750D01*
X021363Y002750D01*
X021613Y002500D01*
X021613Y001000D01*
X021363Y000750D01*
X020863Y000750D01*
X020613Y001000D01*
X021613Y001000D02*
X021863Y000750D01*
X022363Y000750D01*
X022613Y001000D01*
X022613Y002500D01*
X022863Y002750D01*
X023363Y002750D01*
X023613Y002500D01*
X023613Y001000D01*
X023363Y000750D01*
X022863Y000750D01*
X022613Y001000D01*
X023613Y001000D02*
X023863Y000750D01*
X024363Y000750D01*
X024613Y001000D01*
X024613Y002500D01*
X024363Y002750D01*
X023863Y002750D01*
X023613Y002500D01*
X022613Y002500D02*
X022363Y002750D01*
X021863Y002750D01*
X021613Y002500D01*
X020613Y002500D02*
X020363Y002750D01*
X019863Y002750D01*
X019613Y002500D01*
X018613Y002500D02*
X018363Y002750D01*
X017863Y002750D01*
X017613Y002500D01*
X016613Y002500D02*
X016363Y002750D01*
X015863Y002750D01*
X015613Y002500D01*
X014613Y002500D02*
X014363Y002750D01*
X013863Y002750D01*
X013613Y002500D01*
X010231Y007264D02*
X009995Y007264D01*
X009995Y007736D02*
X010231Y007736D01*
X009363Y010750D02*
X009363Y011750D01*
X009363Y012350D01*
X009402Y012352D01*
X009441Y012358D01*
X009479Y012367D01*
X009516Y012380D01*
X009552Y012397D01*
X009585Y012417D01*
X009617Y012441D01*
X009646Y012467D01*
X009672Y012496D01*
X009696Y012528D01*
X009716Y012561D01*
X009733Y012597D01*
X009746Y012634D01*
X009755Y012672D01*
X009761Y012711D01*
X009763Y012750D01*
X009761Y012789D01*
X009755Y012828D01*
X009746Y012866D01*
X009733Y012903D01*
X009716Y012939D01*
X009696Y012972D01*
X009672Y013004D01*
X009646Y013033D01*
X009617Y013059D01*
X009585Y013083D01*
X009552Y013103D01*
X009516Y013120D01*
X009479Y013133D01*
X009441Y013142D01*
X009402Y013148D01*
X009363Y013150D01*
X009363Y013750D01*
X019363Y013750D01*
X019363Y011750D01*
X019363Y010750D01*
X009363Y010750D01*
X009363Y011750D02*
X019363Y011750D01*
X020613Y011500D02*
X020613Y012000D01*
X020863Y012250D01*
X020613Y012500D01*
X020613Y013000D01*
X020863Y013250D01*
X020613Y013500D01*
X020613Y014000D01*
X020863Y014250D01*
X021363Y014250D01*
X021613Y014000D01*
X021613Y013500D01*
X021363Y013250D01*
X021613Y013000D01*
X021613Y012500D01*
X021363Y012250D01*
X021613Y012000D01*
X021613Y011500D01*
X021363Y011250D01*
X020863Y011250D01*
X020613Y011500D01*
X020863Y012250D02*
X021363Y012250D01*
X021363Y013250D02*
X020863Y013250D01*
X019363Y013750D02*
X019363Y014750D01*
X009363Y014750D01*
X009363Y013750D01*
X013627Y018132D02*
X013627Y018368D01*
X014099Y018368D02*
X014099Y018132D01*
X014627Y018132D02*
X014627Y018368D01*
X015099Y018368D02*
X015099Y018132D01*
X015627Y018132D02*
X015627Y018368D01*
X016099Y018368D02*
X016099Y018132D01*
X015863Y019750D02*
X015613Y020000D01*
X015613Y021500D01*
X015863Y021750D01*
X016363Y021750D01*
X016613Y021500D01*
X016613Y020000D01*
X016363Y019750D01*
X015863Y019750D01*
X015613Y020000D02*
X015363Y019750D01*
X014863Y019750D01*
X014613Y020000D01*
X014613Y021500D01*
X014863Y021750D01*
X015363Y021750D01*
X015613Y021500D01*
X016613Y021500D02*
X016863Y021750D01*
X017363Y021750D01*
X017613Y021500D01*
X017613Y020000D01*
X017363Y019750D01*
X016863Y019750D01*
X016613Y020000D01*
X017613Y020000D02*
X017863Y019750D01*
X018363Y019750D01*
X018613Y020000D01*
X018613Y021500D01*
X018863Y021750D01*
X019363Y021750D01*
X019613Y021500D01*
X019613Y020000D01*
X019363Y019750D01*
X018863Y019750D01*
X018613Y020000D01*
X019613Y020000D02*
X019863Y019750D01*
X020363Y019750D01*
X020613Y020000D01*
X020613Y021500D01*
X020863Y021750D01*
X021363Y021750D01*
X021613Y021500D01*
X021613Y020000D01*
X021363Y019750D01*
X020863Y019750D01*
X020613Y020000D01*
X021613Y020000D02*
X021863Y019750D01*
X022363Y019750D01*
X022613Y020000D01*
X022613Y021500D01*
X022863Y021750D01*
X023363Y021750D01*
X023613Y021500D01*
X023613Y020000D01*
X023363Y019750D01*
X022863Y019750D01*
X022613Y020000D01*
X023613Y020000D02*
X023863Y019750D01*
X024363Y019750D01*
X024613Y020000D01*
X024613Y021500D01*
X024363Y021750D01*
X023863Y021750D01*
X023613Y021500D01*
X022613Y021500D02*
X022363Y021750D01*
X021863Y021750D01*
X021613Y021500D01*
X020613Y021500D02*
X020363Y021750D01*
X019863Y021750D01*
X019613Y021500D01*
X018613Y021500D02*
X018363Y021750D01*
X017863Y021750D01*
X017613Y021500D01*
X014613Y021500D02*
X014363Y021750D01*
X013863Y021750D01*
X013613Y021500D01*
X013363Y021750D01*
X012863Y021750D01*
X012613Y021500D01*
X012363Y021750D01*
X011863Y021750D01*
X011613Y021500D01*
X011363Y021750D01*
X010863Y021750D01*
X010613Y021500D01*
X010363Y021750D01*
X009863Y021750D01*
X009613Y021500D01*
X009363Y021750D01*
X008863Y021750D01*
X008613Y021500D01*
X008363Y021750D01*
X007863Y021750D01*
X007613Y021500D01*
X007363Y021750D01*
X006863Y021750D01*
X006613Y021500D01*
X006613Y020000D01*
X006863Y019750D01*
X007363Y019750D01*
X007613Y020000D01*
X007613Y021500D01*
X008613Y021500D02*
X008613Y020000D01*
X008363Y019750D01*
X007863Y019750D01*
X007613Y020000D01*
X008613Y020000D02*
X008863Y019750D01*
X009363Y019750D01*
X009613Y020000D01*
X009613Y021500D01*
X010613Y021500D02*
X010613Y020000D01*
X010363Y019750D01*
X009863Y019750D01*
X009613Y020000D01*
X010613Y020000D02*
X010863Y019750D01*
X011363Y019750D01*
X011613Y020000D01*
X011613Y021500D01*
X012613Y021500D02*
X012613Y020000D01*
X012363Y019750D01*
X011863Y019750D01*
X011613Y020000D01*
X012613Y020000D02*
X012863Y019750D01*
X013363Y019750D01*
X013613Y020000D01*
X013613Y021500D01*
X013613Y020000D02*
X013863Y019750D01*
X014363Y019750D01*
X014613Y020000D01*
X020663Y017850D02*
X020663Y017500D01*
X020663Y016500D01*
X020663Y016150D01*
X021463Y015800D02*
X021563Y015800D01*
X021563Y015700D01*
X022163Y015700D01*
X022163Y015800D01*
X022263Y015800D01*
X023063Y016150D02*
X023063Y016500D01*
X023063Y017450D01*
X023063Y017850D01*
X022263Y018200D02*
X022163Y018200D01*
X022163Y018300D01*
X021563Y018300D01*
X021563Y018200D01*
X021463Y018200D01*
X021763Y017000D02*
X021765Y017020D01*
X021771Y017038D01*
X021780Y017056D01*
X021792Y017071D01*
X021807Y017083D01*
X021825Y017092D01*
X021843Y017098D01*
X021863Y017100D01*
X021883Y017098D01*
X021901Y017092D01*
X021919Y017083D01*
X021934Y017071D01*
X021946Y017056D01*
X021955Y017038D01*
X021961Y017020D01*
X021963Y017000D01*
X021961Y016980D01*
X021955Y016962D01*
X021946Y016944D01*
X021934Y016929D01*
X021919Y016917D01*
X021901Y016908D01*
X021883Y016902D01*
X021863Y016900D01*
X021843Y016902D01*
X021825Y016908D01*
X021807Y016917D01*
X021792Y016929D01*
X021780Y016944D01*
X021771Y016962D01*
X021765Y016980D01*
X021763Y017000D01*
X021163Y017000D02*
X021165Y017052D01*
X021171Y017104D01*
X021181Y017156D01*
X021194Y017206D01*
X021211Y017256D01*
X021232Y017304D01*
X021257Y017350D01*
X021285Y017394D01*
X021316Y017436D01*
X021350Y017476D01*
X021387Y017513D01*
X021427Y017547D01*
X021469Y017578D01*
X021513Y017606D01*
X021559Y017631D01*
X021607Y017652D01*
X021657Y017669D01*
X021707Y017682D01*
X021759Y017692D01*
X021811Y017698D01*
X021863Y017700D01*
X021915Y017698D01*
X021967Y017692D01*
X022019Y017682D01*
X022069Y017669D01*
X022119Y017652D01*
X022167Y017631D01*
X022213Y017606D01*
X022257Y017578D01*
X022299Y017547D01*
X022339Y017513D01*
X022376Y017476D01*
X022410Y017436D01*
X022441Y017394D01*
X022469Y017350D01*
X022494Y017304D01*
X022515Y017256D01*
X022532Y017206D01*
X022545Y017156D01*
X022555Y017104D01*
X022561Y017052D01*
X022563Y017000D01*
X022561Y016948D01*
X022555Y016896D01*
X022545Y016844D01*
X022532Y016794D01*
X022515Y016744D01*
X022494Y016696D01*
X022469Y016650D01*
X022441Y016606D01*
X022410Y016564D01*
X022376Y016524D01*
X022339Y016487D01*
X022299Y016453D01*
X022257Y016422D01*
X022213Y016394D01*
X022167Y016369D01*
X022119Y016348D01*
X022069Y016331D01*
X022019Y016318D01*
X021967Y016308D01*
X021915Y016302D01*
X021863Y016300D01*
X021811Y016302D01*
X021759Y016308D01*
X021707Y016318D01*
X021657Y016331D01*
X021607Y016348D01*
X021559Y016369D01*
X021513Y016394D01*
X021469Y016422D01*
X021427Y016453D01*
X021387Y016487D01*
X021350Y016524D01*
X021316Y016564D01*
X021285Y016606D01*
X021257Y016650D01*
X021232Y016696D01*
X021211Y016744D01*
X021194Y016794D01*
X021181Y016844D01*
X021171Y016896D01*
X021165Y016948D01*
X021163Y017000D01*
X024613Y020000D02*
X024863Y019750D01*
X025363Y019750D01*
X025613Y020000D01*
X025613Y021500D01*
X025363Y021750D01*
X024863Y021750D01*
X024613Y021500D01*
X025613Y021500D02*
X025863Y021750D01*
X026363Y021750D01*
X026613Y021500D01*
X026613Y020000D01*
X026363Y019750D01*
X025863Y019750D01*
X025613Y020000D01*
X026613Y020000D02*
X026863Y019750D01*
X027363Y019750D01*
X027613Y020000D01*
X027613Y021500D01*
X027363Y021750D01*
X026863Y021750D01*
X026613Y021500D01*
X027613Y021500D02*
X027863Y021750D01*
X028363Y021750D01*
X028613Y021500D01*
X028613Y020000D01*
X028363Y019750D01*
X027863Y019750D01*
X027613Y020000D01*
X028613Y020000D02*
X028863Y019750D01*
X029363Y019750D01*
X029613Y020000D01*
X029613Y021500D01*
X029363Y021750D01*
X028863Y021750D01*
X028613Y021500D01*
X022163Y010050D02*
X021563Y010050D01*
X021563Y009950D01*
X021463Y009950D01*
X022163Y009950D02*
X022263Y009950D01*
X022163Y009950D02*
X022163Y010050D01*
X023063Y009600D02*
X023063Y009200D01*
X023063Y008250D01*
X023063Y007900D01*
X022263Y007550D02*
X022163Y007550D01*
X022163Y007450D01*
X021563Y007450D01*
X021563Y007550D01*
X021463Y007550D01*
X020663Y007900D02*
X020663Y008250D01*
X020663Y009250D01*
X020663Y009600D01*
X021763Y008750D02*
X021765Y008770D01*
X021771Y008788D01*
X021780Y008806D01*
X021792Y008821D01*
X021807Y008833D01*
X021825Y008842D01*
X021843Y008848D01*
X021863Y008850D01*
X021883Y008848D01*
X021901Y008842D01*
X021919Y008833D01*
X021934Y008821D01*
X021946Y008806D01*
X021955Y008788D01*
X021961Y008770D01*
X021963Y008750D01*
X021961Y008730D01*
X021955Y008712D01*
X021946Y008694D01*
X021934Y008679D01*
X021919Y008667D01*
X021901Y008658D01*
X021883Y008652D01*
X021863Y008650D01*
X021843Y008652D01*
X021825Y008658D01*
X021807Y008667D01*
X021792Y008679D01*
X021780Y008694D01*
X021771Y008712D01*
X021765Y008730D01*
X021763Y008750D01*
X021163Y008750D02*
X021165Y008802D01*
X021171Y008854D01*
X021181Y008906D01*
X021194Y008956D01*
X021211Y009006D01*
X021232Y009054D01*
X021257Y009100D01*
X021285Y009144D01*
X021316Y009186D01*
X021350Y009226D01*
X021387Y009263D01*
X021427Y009297D01*
X021469Y009328D01*
X021513Y009356D01*
X021559Y009381D01*
X021607Y009402D01*
X021657Y009419D01*
X021707Y009432D01*
X021759Y009442D01*
X021811Y009448D01*
X021863Y009450D01*
X021915Y009448D01*
X021967Y009442D01*
X022019Y009432D01*
X022069Y009419D01*
X022119Y009402D01*
X022167Y009381D01*
X022213Y009356D01*
X022257Y009328D01*
X022299Y009297D01*
X022339Y009263D01*
X022376Y009226D01*
X022410Y009186D01*
X022441Y009144D01*
X022469Y009100D01*
X022494Y009054D01*
X022515Y009006D01*
X022532Y008956D01*
X022545Y008906D01*
X022555Y008854D01*
X022561Y008802D01*
X022563Y008750D01*
X022561Y008698D01*
X022555Y008646D01*
X022545Y008594D01*
X022532Y008544D01*
X022515Y008494D01*
X022494Y008446D01*
X022469Y008400D01*
X022441Y008356D01*
X022410Y008314D01*
X022376Y008274D01*
X022339Y008237D01*
X022299Y008203D01*
X022257Y008172D01*
X022213Y008144D01*
X022167Y008119D01*
X022119Y008098D01*
X022069Y008081D01*
X022019Y008068D01*
X021967Y008058D01*
X021915Y008052D01*
X021863Y008050D01*
X021811Y008052D01*
X021759Y008058D01*
X021707Y008068D01*
X021657Y008081D01*
X021607Y008098D01*
X021559Y008119D01*
X021513Y008144D01*
X021469Y008172D01*
X021427Y008203D01*
X021387Y008237D01*
X021350Y008274D01*
X021316Y008314D01*
X021285Y008356D01*
X021257Y008400D01*
X021232Y008446D01*
X021211Y008494D01*
X021194Y008544D01*
X021181Y008594D01*
X021171Y008646D01*
X021165Y008698D01*
X021163Y008750D01*
X024863Y002750D02*
X024613Y002500D01*
X024863Y002750D02*
X025363Y002750D01*
X025613Y002500D01*
X025613Y001000D01*
X025363Y000750D01*
X024863Y000750D01*
X024613Y001000D01*
X025613Y001000D02*
X025863Y000750D01*
X026363Y000750D01*
X026613Y001000D01*
X026613Y002500D01*
X026363Y002750D01*
X025863Y002750D01*
X025613Y002500D01*
X026613Y002500D02*
X026863Y002750D01*
X027363Y002750D01*
X027613Y002500D01*
X027613Y001000D01*
X027363Y000750D01*
X026863Y000750D01*
X026613Y001000D01*
X027613Y001000D02*
X027863Y000750D01*
X028363Y000750D01*
X028613Y001000D01*
X028613Y002500D01*
X028363Y002750D01*
X027863Y002750D01*
X027613Y002500D01*
X028613Y002500D02*
X028863Y002750D01*
X029363Y002750D01*
X029613Y002500D01*
X029613Y001000D01*
X029363Y000750D01*
X028863Y000750D01*
X028613Y001000D01*
X006981Y018764D02*
X006745Y018764D01*
X006745Y019236D02*
X006981Y019236D01*
D11*
X008046Y019181D02*
X008046Y019000D01*
X008168Y019092D01*
X008046Y019000D02*
X008046Y018819D01*
X008168Y018914D02*
X008052Y018990D01*
X007466Y017563D02*
X007466Y005437D01*
X005363Y005437D01*
X015613Y005500D02*
X015613Y005000D01*
X015863Y004750D01*
X016363Y004750D01*
X016613Y005000D01*
X016613Y005500D01*
X016363Y005750D01*
X016613Y006000D01*
X016613Y006500D01*
X016363Y006750D01*
X015863Y006750D01*
X015613Y006500D01*
X015613Y006000D01*
X015863Y005750D01*
X015613Y005500D01*
X018113Y005500D02*
X018113Y005000D01*
X018363Y004750D01*
X018863Y004750D01*
X019113Y005000D01*
X019113Y005500D01*
X018863Y005750D01*
X019113Y006000D01*
X019113Y006500D01*
X018863Y006750D01*
X018363Y006750D01*
X018113Y006500D01*
X018113Y006000D01*
X018363Y005750D01*
X018113Y005500D01*
X018796Y007319D02*
X018796Y007500D01*
X018918Y007592D01*
X018796Y007681D02*
X018796Y007500D01*
X018802Y007490D02*
X018918Y007414D01*
X016168Y007414D02*
X016052Y007490D01*
X016046Y007500D02*
X016168Y007592D01*
X016046Y007681D02*
X016046Y007500D01*
X016046Y007319D01*
X022613Y012500D02*
X022863Y012250D01*
X023363Y012250D01*
X023613Y012500D01*
X023613Y013000D01*
X023363Y013250D01*
X023613Y013500D01*
X023613Y014000D01*
X023363Y014250D01*
X022863Y014250D01*
X022613Y014000D01*
X022613Y013500D01*
X022863Y013250D01*
X022613Y013000D01*
X022613Y012500D01*
X024813Y012950D02*
X024813Y011650D01*
X024813Y010350D01*
X024813Y009050D01*
X027413Y009050D01*
X027413Y010350D01*
X027413Y011650D01*
X027413Y012950D01*
X024813Y012950D01*
X025313Y011750D02*
X025913Y011750D01*
X025913Y010250D01*
X025313Y010250D01*
X025313Y011750D01*
X025013Y011650D02*
X024813Y011650D01*
X025013Y011650D02*
X025013Y010350D01*
X024813Y010350D01*
X026313Y010250D02*
X026913Y010250D01*
X026913Y011750D01*
X026313Y011750D01*
X026313Y010250D01*
X027213Y010350D02*
X027413Y010350D01*
X027213Y010350D02*
X027213Y011650D01*
X027413Y011650D01*
X007466Y017563D02*
X005363Y017563D01*
D12*
X025613Y010925D03*
X025613Y010675D03*
X025613Y010425D03*
X026613Y010425D03*
X026613Y010675D03*
X026613Y010925D03*
D13*
X023063Y009200D02*
X022963Y009200D01*
X022963Y008250D01*
X023063Y008250D01*
X020763Y008250D02*
X020763Y009250D01*
X020663Y009250D01*
X020663Y008250D02*
X020763Y008250D01*
X020763Y016500D02*
X020763Y017500D01*
X020663Y017500D01*
X020663Y016500D02*
X020763Y016500D01*
X022963Y016500D02*
X023063Y016500D01*
X022963Y016500D02*
X022963Y017450D01*
X023063Y017450D01*
D14*
X019363Y017250D02*
X019363Y016250D01*
X009363Y016250D01*
X009363Y017250D01*
X019363Y017250D01*
X019363Y009250D02*
X009363Y009250D01*
X009363Y008250D01*
X019363Y008250D01*
X019363Y009250D01*
X025879Y006984D02*
X027454Y006984D01*
X027847Y006591D01*
X027847Y005016D01*
X025879Y005016D01*
X025879Y006984D01*
X026036Y006000D02*
X026038Y006057D01*
X026044Y006114D01*
X026054Y006170D01*
X026067Y006226D01*
X026085Y006280D01*
X026106Y006333D01*
X026131Y006384D01*
X026159Y006434D01*
X026191Y006481D01*
X026225Y006527D01*
X026263Y006569D01*
X026304Y006609D01*
X026347Y006647D01*
X026393Y006681D01*
X026441Y006711D01*
X026491Y006739D01*
X026543Y006763D01*
X026597Y006783D01*
X026651Y006799D01*
X026707Y006812D01*
X026763Y006821D01*
X026820Y006826D01*
X026877Y006827D01*
X026934Y006824D01*
X026991Y006817D01*
X027047Y006806D01*
X027102Y006792D01*
X027156Y006773D01*
X027209Y006751D01*
X027260Y006726D01*
X027309Y006696D01*
X027356Y006664D01*
X027401Y006628D01*
X027443Y006590D01*
X027482Y006548D01*
X027518Y006504D01*
X027552Y006458D01*
X027582Y006409D01*
X027608Y006359D01*
X027631Y006307D01*
X027650Y006253D01*
X027666Y006198D01*
X027678Y006142D01*
X027686Y006085D01*
X027690Y006029D01*
X027690Y005971D01*
X027686Y005915D01*
X027678Y005858D01*
X027666Y005802D01*
X027650Y005747D01*
X027631Y005693D01*
X027608Y005641D01*
X027582Y005591D01*
X027552Y005542D01*
X027518Y005496D01*
X027482Y005452D01*
X027443Y005410D01*
X027401Y005372D01*
X027356Y005336D01*
X027309Y005304D01*
X027260Y005274D01*
X027209Y005249D01*
X027156Y005227D01*
X027102Y005208D01*
X027047Y005194D01*
X026991Y005183D01*
X026934Y005176D01*
X026877Y005173D01*
X026820Y005174D01*
X026763Y005179D01*
X026707Y005188D01*
X026651Y005201D01*
X026597Y005217D01*
X026543Y005237D01*
X026491Y005261D01*
X026441Y005289D01*
X026393Y005319D01*
X026347Y005353D01*
X026304Y005391D01*
X026263Y005431D01*
X026225Y005473D01*
X026191Y005519D01*
X026159Y005566D01*
X026131Y005616D01*
X026106Y005667D01*
X026085Y005720D01*
X026067Y005774D01*
X026054Y005830D01*
X026044Y005886D01*
X026038Y005943D01*
X026036Y006000D01*
X027454Y006984D02*
X027847Y006984D01*
X027847Y006591D01*
X027865Y007155D02*
X027867Y007169D01*
X027873Y007183D01*
X027881Y007195D01*
X027893Y007203D01*
X027907Y007209D01*
X027921Y007211D01*
X027935Y007209D01*
X027949Y007203D01*
X027961Y007195D01*
X027969Y007183D01*
X027975Y007169D01*
X027977Y007155D01*
X027975Y007141D01*
X027969Y007127D01*
X027961Y007115D01*
X027949Y007107D01*
X027935Y007101D01*
X027921Y007099D01*
X027907Y007101D01*
X027893Y007107D01*
X027881Y007115D01*
X027873Y007127D01*
X027867Y007141D01*
X027865Y007155D01*
M02*
