G75*
G70*
%OFA0B0*%
%FSLAX24Y24*%
%IPPOS*%
%LPD*%
%AMOC8*
5,1,8,0,0,1.08239X$1,22.5*
%
%ADD10C,0.0050*%
%ADD11R,0.0634X0.0634*%
%ADD12C,0.0634*%
%ADD13R,0.0236X0.0866*%
%ADD14C,0.0560*%
%ADD15R,0.0315X0.0472*%
%ADD16R,0.0472X0.0315*%
%ADD17R,0.0315X0.0315*%
%ADD18C,0.0640*%
%ADD19C,0.0640*%
%ADD20C,0.0740*%
%ADD21R,0.0740X0.0740*%
%ADD22C,0.2000*%
%ADD23OC8,0.0700*%
%ADD24R,0.0433X0.0787*%
%ADD25C,0.0080*%
%ADD26C,0.0400*%
D10*
X007613Y000500D02*
X030863Y000500D01*
X030863Y005500D01*
X030756Y005503D01*
X030649Y005510D01*
X030543Y005523D01*
X030437Y005541D01*
X030333Y005563D01*
X030229Y005591D01*
X030127Y005624D01*
X030027Y005661D01*
X029928Y005703D01*
X029832Y005750D01*
X029738Y005801D01*
X029647Y005857D01*
X029558Y005917D01*
X029472Y005981D01*
X029390Y006050D01*
X029310Y006122D01*
X029235Y006197D01*
X029163Y006277D01*
X029094Y006359D01*
X029030Y006445D01*
X028970Y006534D01*
X028914Y006625D01*
X028863Y006719D01*
X028816Y006815D01*
X028774Y006914D01*
X028737Y007014D01*
X028704Y007116D01*
X028676Y007220D01*
X028654Y007324D01*
X028636Y007430D01*
X028623Y007536D01*
X028616Y007643D01*
X028613Y007750D01*
X028613Y014750D01*
X028616Y014857D01*
X028623Y014964D01*
X028636Y015070D01*
X028654Y015176D01*
X028676Y015280D01*
X028704Y015384D01*
X028737Y015486D01*
X028774Y015586D01*
X028816Y015685D01*
X028863Y015781D01*
X028914Y015875D01*
X028970Y015966D01*
X029030Y016055D01*
X029094Y016141D01*
X029163Y016223D01*
X029235Y016303D01*
X029310Y016378D01*
X029390Y016450D01*
X029472Y016519D01*
X029558Y016583D01*
X029647Y016643D01*
X029738Y016699D01*
X029832Y016750D01*
X029928Y016797D01*
X030027Y016839D01*
X030127Y016876D01*
X030229Y016909D01*
X030333Y016937D01*
X030437Y016959D01*
X030543Y016977D01*
X030649Y016990D01*
X030756Y016997D01*
X030863Y017000D01*
X030863Y022000D01*
X007613Y022000D01*
X007375Y021994D01*
X007138Y021977D01*
X006901Y021949D01*
X006667Y021910D01*
X006434Y021859D01*
X006204Y021797D01*
X005978Y021725D01*
X005755Y021642D01*
X005536Y021548D01*
X005322Y021444D01*
X005113Y021330D01*
X004910Y021206D01*
X004713Y021073D01*
X004522Y020930D01*
X004339Y020779D01*
X004163Y020619D01*
X003994Y020450D01*
X003834Y020274D01*
X003683Y020091D01*
X003540Y019900D01*
X003407Y019703D01*
X003283Y019500D01*
X003169Y019291D01*
X003065Y019077D01*
X002971Y018858D01*
X002888Y018635D01*
X002816Y018409D01*
X002754Y018179D01*
X002703Y017946D01*
X002664Y017712D01*
X002636Y017475D01*
X002619Y017238D01*
X002613Y017000D01*
X002613Y005500D01*
X002619Y005262D01*
X002636Y005025D01*
X002664Y004788D01*
X002703Y004554D01*
X002754Y004321D01*
X002816Y004091D01*
X002888Y003865D01*
X002971Y003642D01*
X003065Y003423D01*
X003169Y003209D01*
X003283Y003000D01*
X003407Y002797D01*
X003540Y002600D01*
X003683Y002409D01*
X003834Y002226D01*
X003994Y002050D01*
X004163Y001881D01*
X004339Y001721D01*
X004522Y001570D01*
X004713Y001427D01*
X004910Y001294D01*
X005113Y001170D01*
X005322Y001056D01*
X005536Y000952D01*
X005755Y000858D01*
X005978Y000775D01*
X006204Y000703D01*
X006434Y000641D01*
X006667Y000590D01*
X006901Y000551D01*
X007138Y000523D01*
X007375Y000506D01*
X007613Y000500D01*
D11*
X029113Y002250D03*
X029113Y021250D03*
D12*
X007113Y001250D03*
X008113Y001250D03*
X009113Y001250D03*
X010113Y001250D03*
X011113Y001250D03*
X012113Y001250D03*
X013113Y001250D03*
X014113Y001250D03*
X015113Y001250D03*
X016113Y001250D03*
X017113Y001250D03*
X018113Y001250D03*
X019113Y001250D03*
X020113Y001250D03*
X021113Y001250D03*
X022113Y001250D03*
X023113Y001250D03*
X024113Y001250D03*
X025113Y001250D03*
X026113Y001250D03*
X027113Y001250D03*
X028113Y001250D03*
X029113Y001250D03*
X028113Y002250D03*
X027113Y002250D03*
X026113Y002250D03*
X025113Y002250D03*
X024113Y002250D03*
X023113Y002250D03*
X022113Y002250D03*
X021113Y002250D03*
X020113Y002250D03*
X019113Y002250D03*
X018113Y002250D03*
X017113Y002250D03*
X016113Y002250D03*
X015113Y002250D03*
X014113Y002250D03*
X013113Y002250D03*
X012113Y002250D03*
X011113Y002250D03*
X010113Y002250D03*
X009113Y002250D03*
X008113Y002250D03*
X007113Y002250D03*
X007113Y020250D03*
X008113Y020250D03*
X009113Y020250D03*
X010113Y020250D03*
X011113Y020250D03*
X012113Y020250D03*
X013113Y020250D03*
X014113Y020250D03*
X015113Y020250D03*
X016113Y020250D03*
X017113Y020250D03*
X018113Y020250D03*
X019113Y020250D03*
X020113Y020250D03*
X021113Y020250D03*
X022113Y020250D03*
X023113Y020250D03*
X024113Y020250D03*
X025113Y020250D03*
X026113Y020250D03*
X027113Y020250D03*
X028113Y020250D03*
X029113Y020250D03*
X028113Y021250D03*
X027113Y021250D03*
X026113Y021250D03*
X025113Y021250D03*
X024113Y021250D03*
X023113Y021250D03*
X022113Y021250D03*
X021113Y021250D03*
X020113Y021250D03*
X019113Y021250D03*
X018113Y021250D03*
X017113Y021250D03*
X016113Y021250D03*
X015113Y021250D03*
X014113Y021250D03*
X013113Y021250D03*
X012113Y021250D03*
X011113Y021250D03*
X010113Y021250D03*
X009113Y021250D03*
X008113Y021250D03*
X007113Y021250D03*
D13*
X025363Y018024D03*
X025863Y018024D03*
X026363Y018024D03*
X026863Y018024D03*
X026863Y015976D03*
X026363Y015976D03*
X025863Y015976D03*
X025363Y015976D03*
D14*
X025613Y012780D02*
X025613Y012220D01*
X026613Y012220D02*
X026613Y012780D01*
X026613Y009780D02*
X026613Y009220D01*
X025613Y009220D02*
X025613Y009780D01*
X018863Y010970D02*
X018863Y011530D01*
X017863Y011530D02*
X017863Y010970D01*
X016863Y010970D02*
X016863Y011530D01*
X015863Y011530D02*
X015863Y010970D01*
X014863Y010970D02*
X014863Y011530D01*
X013863Y011530D02*
X013863Y010970D01*
X012863Y010970D02*
X012863Y011530D01*
X011863Y011530D02*
X011863Y010970D01*
X010863Y010970D02*
X010863Y011530D01*
X009863Y011530D02*
X009863Y010970D01*
X009863Y013970D02*
X009863Y014530D01*
X010863Y014530D02*
X010863Y013970D01*
X011863Y013970D02*
X011863Y014530D01*
X012863Y014530D02*
X012863Y013970D01*
X013863Y013970D02*
X013863Y014530D01*
X014863Y014530D02*
X014863Y013970D01*
X015863Y013970D02*
X015863Y014530D01*
X016863Y014530D02*
X016863Y013970D01*
X017863Y013970D02*
X017863Y014530D01*
X018863Y014530D02*
X018863Y013970D01*
D15*
X010468Y007500D03*
X009759Y007500D03*
X007218Y019000D03*
X006509Y019000D03*
D16*
X013863Y018604D03*
X014863Y018604D03*
X015863Y018604D03*
X015863Y017896D03*
X014863Y017896D03*
X013863Y017896D03*
D17*
X008409Y019000D03*
X007818Y019000D03*
X015818Y007500D03*
X016409Y007500D03*
X018568Y007500D03*
X019159Y007500D03*
D18*
X020973Y007790D02*
X020973Y007150D01*
X022753Y007150D02*
X022753Y007790D01*
X022753Y009710D02*
X022753Y010350D01*
X020973Y010350D02*
X020973Y009710D01*
X020973Y015400D02*
X020973Y016040D01*
X022753Y016040D02*
X022753Y015400D01*
X022753Y017960D02*
X022753Y018600D01*
X020973Y018600D02*
X020973Y017960D01*
D19*
X021113Y013750D03*
X021113Y012750D03*
X021113Y011750D03*
D20*
X023113Y012750D03*
X023113Y013750D03*
X018613Y006250D03*
X018613Y005250D03*
X016113Y005250D03*
X016113Y006250D03*
X006922Y010409D03*
X005804Y009866D03*
X005804Y010957D03*
X006922Y011500D03*
X005804Y012043D03*
X006922Y012591D03*
X005804Y013134D03*
X006922Y013681D03*
D21*
X006922Y009319D03*
D22*
X006363Y006579D03*
X006363Y016421D03*
D23*
X009863Y016750D03*
X010863Y016750D03*
X011863Y016750D03*
X012863Y016750D03*
X013863Y016750D03*
X014863Y016750D03*
X015863Y016750D03*
X016863Y016750D03*
X017863Y016750D03*
X018863Y016750D03*
X018863Y008750D03*
X017863Y008750D03*
X016863Y008750D03*
X015863Y008750D03*
X014863Y008750D03*
X013863Y008750D03*
X012863Y008750D03*
X011863Y008750D03*
X010863Y008750D03*
X009863Y008750D03*
D24*
X026194Y006787D03*
X026863Y006787D03*
X027533Y006787D03*
X027533Y005213D03*
X026863Y005213D03*
X026194Y005213D03*
D25*
X026113Y005000D01*
X026113Y004750D01*
X025863Y004500D01*
X025363Y005000D02*
X025363Y003750D01*
X026863Y004500D02*
X026863Y005213D01*
X027533Y005213D02*
X027613Y005000D01*
X027613Y004750D01*
X027863Y004500D01*
X029113Y005250D02*
X029113Y002250D01*
X029113Y001250D01*
X024113Y001250D02*
X023613Y001750D01*
X023613Y010250D01*
X022863Y010000D02*
X022753Y010030D01*
X022613Y010250D01*
X022613Y011000D01*
X022613Y012250D01*
X023113Y012750D01*
X023113Y013750D02*
X023113Y014500D01*
X025863Y017250D01*
X025863Y018024D01*
X025363Y018024D02*
X025363Y018750D01*
X025613Y018750D01*
X025363Y018750D02*
X025363Y019750D01*
X025613Y020000D01*
X025613Y020750D01*
X020613Y020750D01*
X020613Y021500D01*
X020363Y021750D01*
X013613Y021750D01*
X013613Y019000D01*
X009363Y019000D01*
X009363Y011750D01*
X009863Y011250D01*
X009863Y008750D01*
X009863Y007500D01*
X009759Y007500D01*
X009613Y007500D01*
X009613Y005000D01*
X009113Y004500D01*
X010613Y004000D02*
X010613Y007500D01*
X010468Y007500D01*
X010363Y007500D01*
X010363Y013750D01*
X009863Y014250D01*
X009863Y016750D01*
X012863Y016750D02*
X012863Y014250D01*
X013863Y014250D02*
X013863Y012750D01*
X021113Y012750D01*
X021113Y013750D02*
X021113Y015500D01*
X020973Y015720D01*
X021113Y015750D01*
X021113Y018250D01*
X020973Y018280D01*
X020113Y018250D02*
X020113Y020250D01*
X019613Y020750D02*
X020113Y021250D01*
X019613Y020750D02*
X019613Y018750D01*
X015863Y018750D01*
X015863Y018604D01*
X015613Y018250D02*
X015363Y018500D01*
X014863Y018500D01*
X014863Y018604D01*
X015613Y018250D02*
X020113Y018250D01*
X018863Y016750D02*
X018863Y014250D01*
X017863Y014250D02*
X017863Y016750D01*
X016863Y016750D02*
X016863Y014250D01*
X015863Y014250D02*
X015863Y016750D01*
X015863Y017896D01*
X014863Y017896D02*
X014863Y016750D01*
X014863Y014250D01*
X013863Y014250D02*
X013863Y016750D01*
X013863Y017896D01*
X013863Y018604D02*
X013863Y019000D01*
X013613Y019000D01*
X009363Y019000D02*
X008409Y019000D01*
X008363Y019000D01*
X007863Y019000D02*
X007818Y019000D01*
X007218Y019000D01*
X007113Y019500D02*
X006613Y019000D01*
X006509Y019000D01*
X007113Y019500D02*
X007113Y020250D01*
X007113Y021250D01*
X008113Y021250D01*
X008113Y020250D02*
X007113Y020250D01*
X010863Y011250D02*
X010863Y008750D01*
X011863Y008750D02*
X011863Y011250D01*
X012863Y011250D02*
X012863Y008750D01*
X012863Y005500D01*
X011863Y004500D01*
X011863Y005000D02*
X011363Y004500D01*
X011863Y005000D02*
X011863Y008750D01*
X013863Y008750D02*
X013863Y011250D01*
X014863Y011250D02*
X014863Y008750D01*
X015863Y008750D02*
X015863Y011250D01*
X016863Y011250D02*
X016863Y008750D01*
X016863Y007000D01*
X016113Y006250D01*
X016363Y007000D02*
X016363Y007500D01*
X016409Y007500D01*
X015863Y007500D02*
X015818Y007500D01*
X015863Y007500D02*
X012363Y004000D01*
X010613Y004000D01*
X017863Y007000D02*
X017863Y008750D01*
X017863Y011250D01*
X020363Y010500D02*
X020863Y011000D01*
X022363Y011000D01*
X022363Y015250D01*
X022613Y015500D01*
X022753Y015720D01*
X022863Y015750D01*
X022863Y018250D01*
X022753Y018280D01*
X025863Y016750D02*
X026363Y016250D01*
X026363Y015976D01*
X026863Y015976D02*
X026863Y012750D01*
X026613Y012500D01*
X027113Y012000D01*
X027113Y008750D01*
X026363Y008000D01*
X026363Y007000D01*
X026194Y006787D01*
X026363Y006750D01*
X026863Y006750D01*
X026863Y006787D01*
X026863Y006750D02*
X027363Y006750D01*
X027533Y006787D01*
X027613Y006750D01*
X028363Y006000D01*
X028363Y019500D01*
X029113Y020250D01*
X029113Y021250D01*
X028113Y021250D02*
X028113Y020250D01*
X028113Y008750D01*
X027613Y008250D01*
X027363Y008500D02*
X027363Y019250D01*
X026113Y020500D01*
X026113Y020250D01*
X026113Y020500D02*
X026113Y021250D01*
X025863Y021750D02*
X025613Y021500D01*
X025613Y020750D01*
X027113Y021250D02*
X027113Y020250D01*
X026863Y019250D02*
X026863Y018024D01*
X026363Y018024D02*
X026363Y017250D01*
X025863Y015976D02*
X025863Y013250D01*
X026113Y013000D01*
X026113Y010000D01*
X026613Y009500D01*
X025613Y009500D02*
X025113Y010000D01*
X025113Y015250D01*
X024863Y015500D01*
X025363Y016000D01*
X025363Y015976D01*
X022613Y011000D02*
X022363Y011000D01*
X022863Y010000D02*
X022863Y007500D01*
X022753Y007470D01*
X021113Y007500D02*
X020973Y007470D01*
X021113Y007500D02*
X021113Y010000D01*
X020973Y010030D01*
X020363Y010500D02*
X020363Y009250D01*
X018613Y007500D01*
X018568Y007500D01*
X019113Y007500D02*
X019159Y007500D01*
X019113Y007500D02*
X019613Y007000D01*
X019613Y004500D01*
X018613Y006250D02*
X017863Y007000D01*
X022363Y005250D02*
X023113Y004500D01*
X023113Y003000D01*
X022613Y001750D02*
X023113Y001250D01*
X022613Y001750D02*
X022613Y004250D01*
X024113Y006250D02*
X025363Y005000D01*
X028363Y006000D02*
X029113Y005250D01*
X026863Y008000D02*
X027363Y008500D01*
X028113Y021250D02*
X028113Y021750D01*
X025863Y021750D01*
D26*
X026863Y019250D03*
X025613Y018750D03*
X026363Y017250D03*
X025863Y016750D03*
X024863Y015500D03*
X023613Y010250D03*
X026863Y008000D03*
X027613Y008250D03*
X024113Y006250D03*
X022363Y005250D03*
X022613Y004250D03*
X023113Y003000D03*
X025363Y003750D03*
X025863Y004500D03*
X026863Y004500D03*
X027863Y004500D03*
X019613Y004500D03*
X016363Y007000D03*
X011863Y004500D03*
X011363Y004500D03*
X009113Y004500D03*
M02*
