G75*
G70*
%OFA0B0*%
%FSLAX24Y24*%
%IPPOS*%
%LPD*%
%AMOC8*
5,1,8,0,0,1.08239X$1,22.5*
%
%ADD10R,0.0714X0.0714*%
%ADD11C,0.0714*%
%ADD12R,0.0552X0.0395*%
%ADD13C,0.0640*%
%ADD14R,0.0316X0.0552*%
%ADD15C,0.0720*%
%ADD16C,0.0720*%
%ADD17C,0.0820*%
%ADD18R,0.0395X0.0552*%
%ADD19R,0.0820X0.0820*%
%ADD20C,0.2080*%
%ADD21OC8,0.0780*%
D10*
X029113Y002250D03*
X029113Y021250D03*
D11*
X007113Y001250D03*
X008113Y001250D03*
X009113Y001250D03*
X010113Y001250D03*
X011113Y001250D03*
X012113Y001250D03*
X013113Y001250D03*
X014113Y001250D03*
X015113Y001250D03*
X016113Y001250D03*
X017113Y001250D03*
X018113Y001250D03*
X019113Y001250D03*
X020113Y001250D03*
X021113Y001250D03*
X022113Y001250D03*
X023113Y001250D03*
X024113Y001250D03*
X025113Y001250D03*
X026113Y001250D03*
X027113Y001250D03*
X028113Y001250D03*
X029113Y001250D03*
X028113Y002250D03*
X027113Y002250D03*
X026113Y002250D03*
X025113Y002250D03*
X024113Y002250D03*
X023113Y002250D03*
X022113Y002250D03*
X021113Y002250D03*
X020113Y002250D03*
X019113Y002250D03*
X018113Y002250D03*
X017113Y002250D03*
X016113Y002250D03*
X015113Y002250D03*
X014113Y002250D03*
X013113Y002250D03*
X012113Y002250D03*
X011113Y002250D03*
X010113Y002250D03*
X009113Y002250D03*
X008113Y002250D03*
X007113Y002250D03*
X007113Y020250D03*
X008113Y020250D03*
X009113Y020250D03*
X010113Y020250D03*
X011113Y020250D03*
X012113Y020250D03*
X013113Y020250D03*
X014113Y020250D03*
X015113Y020250D03*
X016113Y020250D03*
X017113Y020250D03*
X018113Y020250D03*
X019113Y020250D03*
X020113Y020250D03*
X021113Y020250D03*
X022113Y020250D03*
X023113Y020250D03*
X024113Y020250D03*
X025113Y020250D03*
X026113Y020250D03*
X027113Y020250D03*
X028113Y020250D03*
X029113Y020250D03*
X028113Y021250D03*
X027113Y021250D03*
X026113Y021250D03*
X025113Y021250D03*
X024113Y021250D03*
X023113Y021250D03*
X022113Y021250D03*
X021113Y021250D03*
X020113Y021250D03*
X019113Y021250D03*
X018113Y021250D03*
X017113Y021250D03*
X016113Y021250D03*
X015113Y021250D03*
X014113Y021250D03*
X013113Y021250D03*
X012113Y021250D03*
X011113Y021250D03*
X010113Y021250D03*
X009113Y021250D03*
X008113Y021250D03*
X007113Y021250D03*
D12*
X025363Y015104D03*
X025363Y014396D03*
X026363Y014396D03*
X027363Y014396D03*
X027363Y015104D03*
X026363Y015104D03*
X027863Y016646D03*
X027863Y017354D03*
X027863Y017896D03*
X027113Y017896D03*
X026363Y017896D03*
X026363Y018604D03*
X027113Y018604D03*
X027863Y018604D03*
X012613Y007354D03*
X012613Y006646D03*
X010113Y006646D03*
X010113Y007354D03*
X008363Y005104D03*
X008363Y004396D03*
X024113Y004396D03*
X025113Y004396D03*
X025113Y005104D03*
X024113Y005104D03*
X026363Y004104D03*
X027363Y004104D03*
X027363Y003396D03*
X026363Y003396D03*
X028363Y003396D03*
X028363Y004104D03*
D13*
X026613Y009220D02*
X026613Y009780D01*
X025613Y009780D02*
X025613Y009220D01*
X025613Y012220D02*
X025613Y012780D01*
X026613Y012780D02*
X026613Y012220D01*
X018863Y011530D02*
X018863Y010970D01*
X017863Y010970D02*
X017863Y011530D01*
X016863Y011530D02*
X016863Y010970D01*
X015863Y010970D02*
X015863Y011530D01*
X014863Y011530D02*
X014863Y010970D01*
X013863Y010970D02*
X013863Y011530D01*
X012863Y011530D02*
X012863Y010970D01*
X011863Y010970D02*
X011863Y011530D01*
X010863Y011530D02*
X010863Y010970D01*
X009863Y010970D02*
X009863Y011530D01*
X009863Y013970D02*
X009863Y014530D01*
X010863Y014530D02*
X010863Y013970D01*
X011863Y013970D02*
X011863Y014530D01*
X012863Y014530D02*
X012863Y013970D01*
X013863Y013970D02*
X013863Y014530D01*
X014863Y014530D02*
X014863Y013970D01*
X015863Y013970D02*
X015863Y014530D01*
X016863Y014530D02*
X016863Y013970D01*
X017863Y013970D02*
X017863Y014530D01*
X018863Y014530D02*
X018863Y013970D01*
D14*
X020363Y005852D03*
X020863Y005852D03*
X021363Y005852D03*
X021863Y005852D03*
X022363Y005852D03*
X022863Y005852D03*
X023363Y005852D03*
X023363Y003648D03*
X022863Y003648D03*
X022363Y003648D03*
X021863Y003648D03*
X021363Y003648D03*
X020863Y003648D03*
X020363Y003648D03*
X012863Y003648D03*
X012363Y003648D03*
X011863Y003648D03*
X011363Y003648D03*
X010863Y003648D03*
X010363Y003648D03*
X009863Y003648D03*
X009363Y003648D03*
X009363Y005852D03*
X009863Y005852D03*
X010363Y005852D03*
X010863Y005852D03*
X011363Y005852D03*
X011863Y005852D03*
X012363Y005852D03*
X012863Y005852D03*
D15*
X020973Y007150D02*
X020973Y007790D01*
X022753Y007790D02*
X022753Y007150D01*
X022753Y009710D02*
X022753Y010350D01*
X020973Y010350D02*
X020973Y009710D01*
X020973Y015400D02*
X020973Y016040D01*
X022753Y016040D02*
X022753Y015400D01*
X022753Y017960D02*
X022753Y018600D01*
X020973Y018600D02*
X020973Y017960D01*
D16*
X021113Y013750D03*
X021113Y012750D03*
X021113Y011750D03*
D17*
X023113Y012750D03*
X023113Y013750D03*
X018613Y006250D03*
X018613Y005250D03*
X016113Y005250D03*
X016113Y006250D03*
X006922Y010409D03*
X005804Y009866D03*
X005804Y010957D03*
X006922Y011500D03*
X005804Y012043D03*
X006922Y012591D03*
X005804Y013134D03*
X006922Y013681D03*
D18*
X008509Y006750D03*
X009218Y006750D03*
X011009Y006750D03*
X011718Y006750D03*
X016009Y004000D03*
X016718Y004000D03*
X018509Y004000D03*
X019218Y004000D03*
D19*
X006922Y009319D03*
D20*
X006363Y006579D03*
X006363Y016421D03*
D21*
X009863Y016750D03*
X010863Y016750D03*
X011863Y016750D03*
X012863Y016750D03*
X013863Y016750D03*
X014863Y016750D03*
X015863Y016750D03*
X016863Y016750D03*
X017863Y016750D03*
X018863Y016750D03*
X018863Y008750D03*
X017863Y008750D03*
X016863Y008750D03*
X015863Y008750D03*
X014863Y008750D03*
X013863Y008750D03*
X012863Y008750D03*
X011863Y008750D03*
X010863Y008750D03*
X009863Y008750D03*
M02*
