G75*
G70*
%OFA0B0*%
%FSLAX24Y24*%
%IPPOS*%
%LPD*%
%AMOC8*
5,1,8,0,0,1.08239X$1,22.5*
%
%ADD10R,0.0634X0.0634*%
%ADD11C,0.0634*%
%ADD12R,0.0472X0.0315*%
%ADD13C,0.0560*%
%ADD14R,0.0236X0.0472*%
%ADD15C,0.0640*%
%ADD16C,0.0640*%
%ADD17C,0.0740*%
%ADD18R,0.0315X0.0472*%
%ADD19R,0.0740X0.0740*%
%ADD20C,0.2000*%
%ADD21OC8,0.0700*%
%ADD22C,0.0080*%
%ADD23C,0.0400*%
D10*
X029113Y002250D03*
X029113Y021250D03*
D11*
X007113Y001250D03*
X008113Y001250D03*
X009113Y001250D03*
X010113Y001250D03*
X011113Y001250D03*
X012113Y001250D03*
X013113Y001250D03*
X014113Y001250D03*
X015113Y001250D03*
X016113Y001250D03*
X017113Y001250D03*
X018113Y001250D03*
X019113Y001250D03*
X020113Y001250D03*
X021113Y001250D03*
X022113Y001250D03*
X023113Y001250D03*
X024113Y001250D03*
X025113Y001250D03*
X026113Y001250D03*
X027113Y001250D03*
X028113Y001250D03*
X029113Y001250D03*
X028113Y002250D03*
X027113Y002250D03*
X026113Y002250D03*
X025113Y002250D03*
X024113Y002250D03*
X023113Y002250D03*
X022113Y002250D03*
X021113Y002250D03*
X020113Y002250D03*
X019113Y002250D03*
X018113Y002250D03*
X017113Y002250D03*
X016113Y002250D03*
X015113Y002250D03*
X014113Y002250D03*
X013113Y002250D03*
X012113Y002250D03*
X011113Y002250D03*
X010113Y002250D03*
X009113Y002250D03*
X008113Y002250D03*
X007113Y002250D03*
X007113Y020250D03*
X008113Y020250D03*
X009113Y020250D03*
X010113Y020250D03*
X011113Y020250D03*
X012113Y020250D03*
X013113Y020250D03*
X014113Y020250D03*
X015113Y020250D03*
X016113Y020250D03*
X017113Y020250D03*
X018113Y020250D03*
X019113Y020250D03*
X020113Y020250D03*
X021113Y020250D03*
X022113Y020250D03*
X023113Y020250D03*
X024113Y020250D03*
X025113Y020250D03*
X026113Y020250D03*
X027113Y020250D03*
X028113Y020250D03*
X029113Y020250D03*
X028113Y021250D03*
X027113Y021250D03*
X026113Y021250D03*
X025113Y021250D03*
X024113Y021250D03*
X023113Y021250D03*
X022113Y021250D03*
X021113Y021250D03*
X020113Y021250D03*
X019113Y021250D03*
X018113Y021250D03*
X017113Y021250D03*
X016113Y021250D03*
X015113Y021250D03*
X014113Y021250D03*
X013113Y021250D03*
X012113Y021250D03*
X011113Y021250D03*
X010113Y021250D03*
X009113Y021250D03*
X008113Y021250D03*
X007113Y021250D03*
D12*
X025363Y015104D03*
X025363Y014396D03*
X026363Y014396D03*
X027363Y014396D03*
X027363Y015104D03*
X026363Y015104D03*
X027863Y016646D03*
X027863Y017354D03*
X027863Y017896D03*
X027113Y017896D03*
X026363Y017896D03*
X026363Y018604D03*
X027113Y018604D03*
X027863Y018604D03*
X012613Y007354D03*
X012613Y006646D03*
X010113Y006646D03*
X010113Y007354D03*
X008363Y005104D03*
X008363Y004396D03*
X024113Y004396D03*
X025113Y004396D03*
X025113Y005104D03*
X024113Y005104D03*
X026363Y004104D03*
X027363Y004104D03*
X027363Y003396D03*
X026363Y003396D03*
X028363Y003396D03*
X028363Y004104D03*
D13*
X026613Y009220D02*
X026613Y009780D01*
X025613Y009780D02*
X025613Y009220D01*
X025613Y012220D02*
X025613Y012780D01*
X026613Y012780D02*
X026613Y012220D01*
X018863Y011530D02*
X018863Y010970D01*
X017863Y010970D02*
X017863Y011530D01*
X016863Y011530D02*
X016863Y010970D01*
X015863Y010970D02*
X015863Y011530D01*
X014863Y011530D02*
X014863Y010970D01*
X013863Y010970D02*
X013863Y011530D01*
X012863Y011530D02*
X012863Y010970D01*
X011863Y010970D02*
X011863Y011530D01*
X010863Y011530D02*
X010863Y010970D01*
X009863Y010970D02*
X009863Y011530D01*
X009863Y013970D02*
X009863Y014530D01*
X010863Y014530D02*
X010863Y013970D01*
X011863Y013970D02*
X011863Y014530D01*
X012863Y014530D02*
X012863Y013970D01*
X013863Y013970D02*
X013863Y014530D01*
X014863Y014530D02*
X014863Y013970D01*
X015863Y013970D02*
X015863Y014530D01*
X016863Y014530D02*
X016863Y013970D01*
X017863Y013970D02*
X017863Y014530D01*
X018863Y014530D02*
X018863Y013970D01*
D14*
X020363Y005852D03*
X020863Y005852D03*
X021363Y005852D03*
X021863Y005852D03*
X022363Y005852D03*
X022863Y005852D03*
X023363Y005852D03*
X023363Y003648D03*
X022863Y003648D03*
X022363Y003648D03*
X021863Y003648D03*
X021363Y003648D03*
X020863Y003648D03*
X020363Y003648D03*
X012863Y003648D03*
X012363Y003648D03*
X011863Y003648D03*
X011363Y003648D03*
X010863Y003648D03*
X010363Y003648D03*
X009863Y003648D03*
X009363Y003648D03*
X009363Y005852D03*
X009863Y005852D03*
X010363Y005852D03*
X010863Y005852D03*
X011363Y005852D03*
X011863Y005852D03*
X012363Y005852D03*
X012863Y005852D03*
D15*
X020973Y007150D02*
X020973Y007790D01*
X022753Y007790D02*
X022753Y007150D01*
X022753Y009710D02*
X022753Y010350D01*
X020973Y010350D02*
X020973Y009710D01*
X020973Y015400D02*
X020973Y016040D01*
X022753Y016040D02*
X022753Y015400D01*
X022753Y017960D02*
X022753Y018600D01*
X020973Y018600D02*
X020973Y017960D01*
D16*
X021113Y013750D03*
X021113Y012750D03*
X021113Y011750D03*
D17*
X023113Y012750D03*
X023113Y013750D03*
X018613Y006250D03*
X018613Y005250D03*
X016113Y005250D03*
X016113Y006250D03*
X006922Y010409D03*
X005804Y009866D03*
X005804Y010957D03*
X006922Y011500D03*
X005804Y012043D03*
X006922Y012591D03*
X005804Y013134D03*
X006922Y013681D03*
D18*
X008509Y006750D03*
X009218Y006750D03*
X011009Y006750D03*
X011718Y006750D03*
X016009Y004000D03*
X016718Y004000D03*
X018509Y004000D03*
X019218Y004000D03*
D19*
X006922Y009319D03*
D20*
X006363Y006579D03*
X006363Y016421D03*
D21*
X009863Y016750D03*
X010863Y016750D03*
X011863Y016750D03*
X012863Y016750D03*
X013863Y016750D03*
X014863Y016750D03*
X015863Y016750D03*
X016863Y016750D03*
X017863Y016750D03*
X018863Y016750D03*
X018863Y008750D03*
X017863Y008750D03*
X016863Y008750D03*
X015863Y008750D03*
X014863Y008750D03*
X013863Y008750D03*
X012863Y008750D03*
X011863Y008750D03*
X010863Y008750D03*
X009863Y008750D03*
D22*
X010113Y007500D02*
X008363Y009250D01*
X008363Y014250D01*
X009863Y014250D01*
X007113Y012500D02*
X006922Y012591D01*
X007113Y012500D02*
X006113Y011500D01*
X005113Y011500D01*
X005113Y006000D01*
X008113Y003000D01*
X010363Y003000D01*
X010863Y003500D01*
X010863Y003648D01*
X011363Y003648D02*
X011363Y004500D01*
X011863Y004500D02*
X011863Y003648D01*
X012363Y003648D02*
X012363Y003500D01*
X012613Y003250D01*
X020113Y003250D01*
X020363Y003500D01*
X020363Y003648D01*
X020363Y003500D02*
X020613Y003250D01*
X021113Y003250D01*
X021363Y003500D01*
X021363Y003648D01*
X021363Y003750D01*
X022363Y004750D01*
X024363Y004750D01*
X024113Y004500D01*
X024113Y004396D01*
X023613Y004000D02*
X024863Y004000D01*
X025113Y004250D01*
X025113Y004396D01*
X025113Y004500D01*
X025613Y005000D01*
X027363Y005000D01*
X027363Y008000D01*
X027613Y008250D01*
X027363Y008000D02*
X026863Y008500D01*
X020363Y008500D01*
X020363Y005852D01*
X019863Y005750D02*
X019863Y008750D01*
X027613Y008750D01*
X028363Y008000D01*
X028363Y004750D01*
X028863Y004250D01*
X028863Y003500D01*
X028363Y003500D01*
X028363Y003396D01*
X028363Y004104D02*
X028363Y004250D01*
X028113Y004500D01*
X027863Y004500D01*
X027363Y004250D02*
X027363Y004104D01*
X027363Y004250D02*
X027113Y004500D01*
X026863Y004500D01*
X026363Y004250D02*
X026363Y004104D01*
X026363Y004250D02*
X026113Y004500D01*
X025863Y004500D01*
X025113Y005000D02*
X025113Y005104D01*
X025113Y005000D02*
X024613Y005000D01*
X024363Y004750D01*
X024113Y005104D02*
X024113Y005250D01*
X026863Y008000D01*
X026613Y009500D02*
X027113Y009500D01*
X027113Y013000D01*
X026863Y013250D01*
X024863Y013250D01*
X024863Y014500D01*
X025113Y014750D01*
X026113Y014750D01*
X026363Y015000D01*
X026363Y015104D01*
X027363Y015104D02*
X027363Y015250D01*
X025863Y016750D01*
X026363Y017250D02*
X026863Y017750D01*
X027113Y017750D01*
X027113Y017896D01*
X027113Y018000D01*
X026863Y018250D01*
X023863Y018250D01*
X022613Y019500D01*
X020113Y019500D01*
X019613Y020000D01*
X019613Y021250D01*
X020113Y021250D01*
X020113Y020250D02*
X020613Y019750D01*
X026863Y019750D01*
X026863Y019250D01*
X026863Y019750D02*
X028363Y019750D01*
X028363Y018500D01*
X027863Y018000D01*
X027863Y017896D01*
X027863Y017500D02*
X027863Y017354D01*
X027863Y017250D01*
X027363Y017250D01*
X027363Y016500D01*
X027613Y016250D01*
X027863Y016250D01*
X027863Y015000D01*
X027363Y014500D01*
X027363Y014396D01*
X027363Y014500D02*
X026363Y014500D01*
X026363Y014396D01*
X026363Y014500D02*
X025363Y014500D01*
X025363Y014396D01*
X025363Y015104D02*
X025363Y015250D01*
X025113Y015500D01*
X024863Y015500D01*
X023113Y014500D02*
X023113Y013750D01*
X023113Y014500D02*
X026363Y017750D01*
X026363Y017896D01*
X026363Y018604D02*
X026363Y018750D01*
X025613Y018750D01*
X026363Y018750D02*
X027113Y018750D01*
X027113Y018604D01*
X027113Y018750D02*
X027863Y018750D01*
X027863Y018604D01*
X028613Y018000D02*
X028613Y020250D01*
X028113Y020250D01*
X029113Y020250D02*
X029113Y018000D01*
X027863Y016750D01*
X027863Y016646D01*
X027863Y017500D02*
X028113Y017500D01*
X028613Y018000D01*
X022753Y018280D02*
X022613Y018250D01*
X021863Y017500D01*
X008113Y017500D01*
X008113Y020250D01*
X008113Y017500D02*
X008113Y016750D01*
X009863Y016750D01*
X006922Y011500D02*
X006863Y011500D01*
X006613Y011250D01*
X006363Y011250D01*
X006363Y008750D01*
X006613Y008500D01*
X007613Y008500D01*
X007613Y004500D01*
X008863Y003250D01*
X010113Y003250D01*
X010363Y003500D01*
X010363Y003648D01*
X009863Y003648D02*
X009863Y005000D01*
X012113Y005000D01*
X012863Y005750D01*
X012863Y005852D01*
X012863Y006000D01*
X013113Y006000D01*
X013113Y006750D01*
X012613Y007250D01*
X012613Y007354D01*
X012613Y007500D01*
X010113Y007500D01*
X010113Y007354D01*
X010363Y007000D02*
X009613Y007000D01*
X009363Y006750D01*
X009218Y006750D01*
X008613Y006750D02*
X008509Y006750D01*
X008613Y006750D02*
X009363Y006000D01*
X009363Y005852D01*
X009863Y005852D02*
X009863Y006500D01*
X010113Y006500D01*
X010113Y006646D01*
X010363Y007000D02*
X010613Y006750D01*
X010613Y006250D01*
X010363Y006000D01*
X010363Y005852D01*
X010863Y005852D02*
X010863Y006750D01*
X011009Y006750D01*
X011363Y006750D02*
X011718Y006750D01*
X011363Y006750D02*
X011363Y005852D01*
X011863Y005852D02*
X011863Y006000D01*
X012363Y006500D01*
X012613Y006500D01*
X012613Y006646D01*
X012363Y005000D02*
X012113Y005000D01*
X012363Y005000D02*
X012363Y003648D01*
X009863Y005000D02*
X008363Y005000D01*
X008363Y005104D01*
X009113Y004500D02*
X008863Y004250D01*
X008363Y004250D01*
X008363Y004396D01*
X008863Y004250D02*
X009363Y003750D01*
X009363Y003648D01*
X016009Y004000D02*
X016113Y004000D01*
X016113Y005250D01*
X016718Y004000D02*
X016863Y004000D01*
X016863Y006500D01*
X016363Y007000D01*
X018613Y005250D02*
X018613Y004000D01*
X018509Y004000D01*
X019113Y004000D02*
X019218Y004000D01*
X019113Y004000D02*
X019613Y004500D01*
X020363Y005250D02*
X019863Y005750D01*
X020363Y005250D02*
X021363Y005250D01*
X021863Y005750D01*
X021863Y005852D01*
X022363Y005852D02*
X022363Y005250D01*
X023363Y005750D02*
X023363Y005852D01*
X023363Y005750D02*
X023613Y005750D01*
X024113Y005250D01*
X022863Y005852D02*
X022863Y006000D01*
X023113Y006250D01*
X024113Y006250D01*
X022863Y004250D02*
X022613Y004250D01*
X022863Y004250D02*
X022863Y003648D01*
X022363Y003648D02*
X022363Y002750D01*
X022613Y002500D01*
X022613Y001250D01*
X022113Y001250D01*
X021613Y001250D02*
X021113Y001250D01*
X021613Y001250D02*
X021613Y002500D01*
X021863Y002750D01*
X021863Y003648D01*
X023113Y003000D02*
X023363Y003250D01*
X026363Y003250D01*
X026363Y003396D01*
X027113Y003750D02*
X027363Y003500D01*
X027363Y003396D01*
X027113Y003750D02*
X025363Y003750D01*
X023613Y004000D02*
X023363Y003750D01*
X023363Y003648D01*
X018863Y008750D02*
X020363Y010250D01*
X019863Y010250D01*
X018863Y011250D01*
X020363Y010250D02*
X020863Y010250D01*
X020973Y010030D01*
X022113Y011750D02*
X023613Y010250D01*
X022113Y011750D02*
X021113Y011750D01*
X023113Y012750D02*
X025363Y012750D01*
X025613Y012500D01*
X026613Y012500D01*
X008363Y009250D02*
X007113Y009250D01*
X006922Y009319D01*
D23*
X009113Y004500D03*
X011363Y004500D03*
X011863Y004500D03*
X016363Y007000D03*
X019613Y004500D03*
X022363Y005250D03*
X022613Y004250D03*
X023113Y003000D03*
X025363Y003750D03*
X025863Y004500D03*
X026863Y004500D03*
X027863Y004500D03*
X024113Y006250D03*
X026863Y008000D03*
X027613Y008250D03*
X023613Y010250D03*
X024863Y015500D03*
X025863Y016750D03*
X026363Y017250D03*
X025613Y018750D03*
X026863Y019250D03*
M02*
