G75*
G70*
%OFA0B0*%
%FSLAX24Y24*%
%IPPOS*%
%LPD*%
%AMOC8*
5,1,8,0,0,1.08239X$1,22.5*
%
%ADD10R,0.0820X0.0820*%
%ADD11C,0.0820*%
%ADD12C,0.2080*%
%ADD13R,0.0630X0.0217*%
%ADD14R,0.0552X0.0395*%
%ADD15R,0.0395X0.0552*%
%ADD16R,0.0631X0.0710*%
%ADD17R,0.0395X0.0395*%
%ADD18C,0.0740*%
%ADD19C,0.1380*%
%ADD20R,0.0880X0.0340*%
%ADD21R,0.0710X0.0631*%
%ADD22C,0.0480*%
D10*
X023814Y011782D03*
D11*
X024932Y011235D03*
X023814Y010691D03*
X024932Y010144D03*
X023814Y009601D03*
X024932Y009057D03*
X023814Y008510D03*
X024932Y007967D03*
X023814Y007420D03*
D12*
X024373Y004680D03*
X024373Y014522D03*
D13*
X011112Y011764D03*
X011112Y011508D03*
X011112Y011252D03*
X011112Y010996D03*
X011112Y010741D03*
X011112Y010485D03*
X011112Y010229D03*
X011112Y009973D03*
X011112Y009717D03*
X011112Y009461D03*
X011112Y009205D03*
X011112Y008949D03*
X011112Y008693D03*
X011112Y008437D03*
X008234Y008437D03*
X008234Y008693D03*
X008234Y008949D03*
X008234Y009205D03*
X008234Y009461D03*
X008234Y009717D03*
X008234Y009973D03*
X008234Y010229D03*
X008234Y010485D03*
X008234Y010741D03*
X008234Y010996D03*
X008234Y011252D03*
X008234Y011508D03*
X008234Y011764D03*
D14*
X012573Y009055D03*
X012573Y008346D03*
D15*
X012819Y006601D03*
X013527Y006601D03*
X013527Y005101D03*
X012819Y005101D03*
X009727Y014101D03*
X009019Y014101D03*
X009019Y015301D03*
X009727Y015301D03*
D16*
X009924Y016801D03*
X008822Y016801D03*
X018022Y016801D03*
X019124Y016801D03*
X019124Y015101D03*
X018022Y015101D03*
D17*
X011968Y006601D03*
X011378Y006601D03*
X011378Y005101D03*
X011968Y005101D03*
D18*
X005853Y009109D03*
X005073Y009109D03*
X005073Y010093D03*
X005853Y010093D03*
D19*
X003173Y001601D03*
X004003Y007231D03*
X004003Y011971D03*
X003673Y017601D03*
X026673Y017601D03*
X026673Y001601D03*
D20*
X020653Y006851D03*
X020653Y007351D03*
X020653Y007851D03*
X020653Y008351D03*
X020653Y008851D03*
X020653Y009351D03*
X020653Y009851D03*
X020653Y010351D03*
X020653Y010851D03*
X020653Y011351D03*
X020653Y011851D03*
X020653Y012351D03*
X020653Y012851D03*
X020653Y013351D03*
X016693Y013351D03*
X016693Y012851D03*
X016693Y012351D03*
X016693Y011851D03*
X016693Y011351D03*
X016693Y010851D03*
X016693Y010351D03*
X016693Y009851D03*
X016693Y009351D03*
X016693Y008851D03*
X016693Y008351D03*
X016693Y007851D03*
X016693Y007351D03*
X016693Y006851D03*
D21*
X015173Y006452D03*
X015173Y005350D03*
X022173Y005152D03*
X022173Y004050D03*
X022173Y006550D03*
X022173Y007652D03*
D22*
X022793Y007181D03*
X019793Y009221D03*
X017873Y008261D03*
X015953Y010541D03*
X015233Y010781D03*
X015953Y011021D03*
X017513Y010661D03*
X017513Y011621D03*
X015953Y012221D03*
X014393Y012581D03*
X013673Y012821D03*
X011753Y010181D03*
X010553Y010301D03*
X009593Y010061D03*
X009233Y009701D03*
X009233Y009221D03*
X007673Y010541D03*
X007433Y011501D03*
X008153Y013661D03*
X011273Y008021D03*
X011393Y006101D03*
X017273Y005741D03*
X023153Y010661D03*
X019913Y012341D03*
X019433Y011981D03*
X019073Y011621D03*
X018713Y012701D03*
X019913Y013061D03*
X017993Y014021D03*
X019073Y014501D03*
M02*
