G75*
G70*
%OFA0B0*%
%FSLAX24Y24*%
%IPPOS*%
%LPD*%
%AMOC8*
5,1,8,0,0,1.08239X$1,22.5*
%
%ADD10R,0.0820X0.0820*%
%ADD11C,0.0820*%
%ADD12C,0.2080*%
%ADD13C,0.0740*%
%ADD14C,0.1380*%
%ADD15C,0.0480*%
D10*
X023814Y011782D03*
D11*
X024932Y011235D03*
X023814Y010691D03*
X024932Y010144D03*
X023814Y009601D03*
X024932Y009057D03*
X023814Y008510D03*
X024932Y007967D03*
X023814Y007420D03*
D12*
X024373Y004680D03*
X024373Y014522D03*
D13*
X005853Y010093D03*
X005073Y010093D03*
X005073Y009109D03*
X005853Y009109D03*
D14*
X003173Y001601D03*
X004003Y007231D03*
X004003Y011971D03*
X003673Y017601D03*
X026673Y017601D03*
X026673Y001601D03*
D15*
X022793Y007181D03*
X019793Y009221D03*
X017873Y008261D03*
X015953Y010541D03*
X015233Y010781D03*
X015953Y011021D03*
X017513Y010661D03*
X017513Y011621D03*
X015953Y012221D03*
X014393Y012581D03*
X013673Y012821D03*
X011753Y010181D03*
X010553Y010301D03*
X009593Y010061D03*
X009233Y009701D03*
X009233Y009221D03*
X007673Y010541D03*
X007433Y011501D03*
X008153Y013661D03*
X011273Y008021D03*
X011393Y006101D03*
X017273Y005741D03*
X023153Y010661D03*
X019913Y012341D03*
X019433Y011981D03*
X019073Y011621D03*
X018713Y012701D03*
X019913Y013061D03*
X017993Y014021D03*
X019073Y014501D03*
M02*
