G75*
G70*
%OFA0B0*%
%FSLAX24Y24*%
%IPPOS*%
%LPD*%
%AMOC8*
5,1,8,0,0,1.08239X$1,22.5*
%
%ADD10C,0.0040*%
%ADD11C,0.0020*%
%ADD12C,0.0080*%
%ADD13C,0.0050*%
%ADD14C,0.0060*%
%ADD15C,0.0010*%
%ADD16R,0.0050X0.0200*%
D10*
X002470Y005521D02*
X002623Y005521D01*
X002700Y005597D01*
X002700Y005981D01*
X002853Y005904D02*
X002853Y005828D01*
X002930Y005751D01*
X003084Y005751D01*
X003160Y005674D01*
X003160Y005597D01*
X003084Y005521D01*
X002930Y005521D01*
X002853Y005597D01*
X002853Y005904D02*
X002930Y005981D01*
X003084Y005981D01*
X003160Y005904D01*
X003314Y005981D02*
X003544Y005981D01*
X003621Y005904D01*
X003621Y005828D01*
X003544Y005751D01*
X003314Y005751D01*
X003544Y005751D02*
X003621Y005674D01*
X003621Y005597D01*
X003544Y005521D01*
X003314Y005521D01*
X003314Y005981D01*
X003774Y005751D02*
X004081Y005751D01*
X004234Y005521D02*
X004388Y005521D01*
X004311Y005521D02*
X004311Y005981D01*
X004234Y005981D02*
X004388Y005981D01*
X004541Y005981D02*
X004848Y005521D01*
X004848Y005981D01*
X004541Y005981D02*
X004541Y005521D01*
X002470Y005521D02*
X002393Y005597D01*
X002393Y005981D01*
X003093Y009200D02*
X003553Y009507D01*
X003553Y009660D02*
X003246Y009967D01*
X003169Y009967D01*
X003093Y009891D01*
X003093Y009737D01*
X003169Y009660D01*
X003093Y009507D02*
X003553Y009200D01*
X003553Y009660D02*
X003553Y009967D01*
X007693Y007581D02*
X007693Y007121D01*
X007693Y007351D02*
X007846Y007351D01*
X007693Y007581D02*
X008000Y007581D01*
X008153Y007581D02*
X008460Y007581D01*
X008307Y007581D02*
X008307Y007121D01*
X008614Y007121D02*
X008921Y007428D01*
X008921Y007504D01*
X008844Y007581D01*
X008690Y007581D01*
X008614Y007504D01*
X009074Y007504D02*
X009151Y007581D01*
X009304Y007581D01*
X009381Y007504D01*
X009381Y007428D01*
X009304Y007351D01*
X009381Y007274D01*
X009381Y007197D01*
X009304Y007121D01*
X009151Y007121D01*
X009074Y007197D01*
X008921Y007121D02*
X008614Y007121D01*
X009228Y007351D02*
X009304Y007351D01*
X009534Y007504D02*
X009611Y007581D01*
X009765Y007581D01*
X009841Y007504D01*
X009841Y007428D01*
X009534Y007121D01*
X009841Y007121D01*
X009995Y007121D02*
X009995Y007581D01*
X010225Y007581D01*
X010302Y007504D01*
X010302Y007351D01*
X010225Y007274D01*
X009995Y007274D01*
X010148Y007274D02*
X010302Y007121D01*
X010455Y007121D02*
X010762Y007121D01*
X010455Y007121D02*
X010455Y007581D01*
X017993Y006281D02*
X017993Y005821D01*
X018300Y005821D02*
X018300Y006281D01*
X018146Y006128D01*
X017993Y006281D01*
X018453Y006128D02*
X018453Y005821D01*
X018453Y006051D02*
X018760Y006051D01*
X018760Y006128D02*
X018760Y005821D01*
X018914Y005821D02*
X019221Y006281D01*
X019374Y006204D02*
X019451Y006281D01*
X019604Y006281D01*
X019681Y006204D01*
X019681Y006128D01*
X019374Y005821D01*
X019681Y005821D01*
X019834Y005821D02*
X020141Y005821D01*
X019988Y005821D02*
X019988Y006281D01*
X019834Y006128D01*
X020295Y006204D02*
X020372Y006281D01*
X020525Y006281D01*
X020602Y006204D01*
X020602Y006128D01*
X020525Y006051D01*
X020602Y005974D01*
X020602Y005897D01*
X020525Y005821D01*
X020372Y005821D01*
X020295Y005897D01*
X020448Y006051D02*
X020525Y006051D01*
X019221Y005821D02*
X018914Y006281D01*
X018760Y006128D02*
X018607Y006281D01*
X018453Y006128D01*
X021693Y002781D02*
X021923Y002781D01*
X022000Y002704D01*
X022000Y002551D01*
X021923Y002474D01*
X021693Y002474D01*
X021693Y002321D02*
X021693Y002781D01*
X021846Y002474D02*
X022000Y002321D01*
X022153Y002397D02*
X022230Y002321D01*
X022384Y002321D01*
X022460Y002397D01*
X022460Y002474D01*
X022384Y002551D01*
X022230Y002551D01*
X022153Y002628D01*
X022153Y002704D01*
X022230Y002781D01*
X022384Y002781D01*
X022460Y002704D01*
X022614Y002704D02*
X022690Y002781D01*
X022844Y002781D01*
X022921Y002704D01*
X022921Y002628D01*
X022614Y002321D01*
X022921Y002321D01*
X023074Y002397D02*
X023151Y002321D01*
X023304Y002321D01*
X023381Y002397D01*
X023381Y002474D01*
X023304Y002551D01*
X023228Y002551D01*
X023304Y002551D02*
X023381Y002628D01*
X023381Y002704D01*
X023304Y002781D01*
X023151Y002781D01*
X023074Y002704D01*
X023534Y002704D02*
X023611Y002781D01*
X023765Y002781D01*
X023841Y002704D01*
X023841Y002628D01*
X023534Y002321D01*
X023841Y002321D01*
X023995Y002551D02*
X024302Y002551D01*
X024455Y002704D02*
X024455Y002397D01*
X024532Y002321D01*
X024685Y002321D01*
X024762Y002397D01*
X024762Y002704D01*
X024685Y002781D01*
X024532Y002781D01*
X024455Y002704D01*
X024916Y002781D02*
X024916Y002397D01*
X024992Y002321D01*
X025146Y002321D01*
X025222Y002397D01*
X025222Y002781D01*
X025376Y002781D02*
X025683Y002781D01*
X025529Y002781D02*
X025529Y002321D01*
X009767Y012621D02*
X009460Y012621D01*
X009614Y012621D02*
X009614Y013081D01*
X009460Y012928D01*
X009307Y013004D02*
X009230Y013081D01*
X009077Y013081D01*
X009000Y013004D01*
X009000Y012697D01*
X009077Y012621D01*
X009230Y012621D01*
X009307Y012697D01*
X008846Y012621D02*
X008693Y012621D01*
X008770Y012621D02*
X008770Y013081D01*
X008846Y013081D02*
X008693Y013081D01*
X011470Y018021D02*
X011623Y018021D01*
X011700Y018097D01*
X011700Y018481D01*
X011853Y018404D02*
X011930Y018481D01*
X012084Y018481D01*
X012160Y018404D01*
X012084Y018251D02*
X012160Y018174D01*
X012160Y018097D01*
X012084Y018021D01*
X011930Y018021D01*
X011853Y018097D01*
X011930Y018251D02*
X012084Y018251D01*
X011930Y018251D02*
X011853Y018328D01*
X011853Y018404D01*
X011393Y018481D02*
X011393Y018097D01*
X011470Y018021D01*
X012314Y018021D02*
X012314Y018481D01*
X012544Y018481D01*
X012621Y018404D01*
X012621Y018328D01*
X012544Y018251D01*
X012314Y018251D01*
X012544Y018251D02*
X012621Y018174D01*
X012621Y018097D01*
X012544Y018021D01*
X012314Y018021D01*
X012774Y018251D02*
X013081Y018251D01*
X013234Y018328D02*
X013388Y018328D01*
X013311Y018404D02*
X013311Y018097D01*
X013388Y018021D01*
X013541Y018097D02*
X013618Y018021D01*
X013772Y018021D01*
X013848Y018097D01*
X013848Y018251D01*
X013772Y018328D01*
X013618Y018328D01*
X013541Y018251D01*
X013541Y018097D01*
X014002Y018251D02*
X014309Y018251D01*
X014462Y018328D02*
X014539Y018251D01*
X014692Y018251D01*
X014769Y018174D01*
X014769Y018097D01*
X014692Y018021D01*
X014539Y018021D01*
X014462Y018097D01*
X014462Y018328D02*
X014462Y018404D01*
X014539Y018481D01*
X014692Y018481D01*
X014769Y018404D01*
X014922Y018251D02*
X014999Y018328D01*
X015153Y018328D01*
X015229Y018251D01*
X015229Y018174D01*
X014922Y018174D01*
X014922Y018097D02*
X014922Y018251D01*
X014922Y018097D02*
X014999Y018021D01*
X015153Y018021D01*
X015383Y018021D02*
X015383Y018328D01*
X015536Y018328D02*
X015613Y018328D01*
X015536Y018328D02*
X015383Y018174D01*
X015766Y018021D02*
X015920Y018021D01*
X015843Y018021D02*
X015843Y018328D01*
X015766Y018328D01*
X015843Y018481D02*
X015843Y018558D01*
X016150Y018328D02*
X016303Y018328D01*
X016380Y018251D01*
X016380Y018021D01*
X016150Y018021D01*
X016073Y018097D01*
X016150Y018174D01*
X016380Y018174D01*
X016534Y018021D02*
X016687Y018021D01*
X016610Y018021D02*
X016610Y018481D01*
X016534Y018481D01*
X017301Y018404D02*
X017301Y018097D01*
X017378Y018021D01*
X017531Y018021D01*
X017608Y018097D01*
X017761Y018097D02*
X017838Y018021D01*
X017991Y018021D01*
X018068Y018097D01*
X018068Y018251D01*
X017991Y018328D01*
X017838Y018328D01*
X017761Y018251D01*
X017761Y018097D01*
X017608Y018404D02*
X017531Y018481D01*
X017378Y018481D01*
X017301Y018404D01*
X018222Y018328D02*
X018222Y018021D01*
X018529Y018021D02*
X018529Y018251D01*
X018452Y018328D01*
X018222Y018328D01*
X018682Y018328D02*
X018835Y018021D01*
X018989Y018328D01*
X019142Y018251D02*
X019142Y018097D01*
X019219Y018021D01*
X019372Y018021D01*
X019449Y018174D02*
X019142Y018174D01*
X019142Y018251D02*
X019219Y018328D01*
X019372Y018328D01*
X019449Y018251D01*
X019449Y018174D01*
X019603Y018174D02*
X019756Y018328D01*
X019833Y018328D01*
X019986Y018328D02*
X020140Y018328D01*
X020063Y018404D02*
X020063Y018097D01*
X020140Y018021D01*
X020293Y018097D02*
X020293Y018251D01*
X020370Y018328D01*
X020523Y018328D01*
X020600Y018251D01*
X020600Y018174D01*
X020293Y018174D01*
X020293Y018097D02*
X020370Y018021D01*
X020523Y018021D01*
X020754Y018021D02*
X020754Y018328D01*
X020907Y018328D02*
X020984Y018328D01*
X020907Y018328D02*
X020754Y018174D01*
X019603Y018021D02*
X019603Y018328D01*
D11*
X017343Y013651D02*
X017343Y006551D01*
X012146Y007011D02*
X011959Y007291D01*
X011870Y007291D02*
X011683Y007291D01*
X011776Y007291D02*
X011776Y007011D01*
X011959Y007011D02*
X012146Y007291D01*
X012146Y005791D02*
X011959Y005511D01*
X011870Y005511D02*
X011776Y005604D01*
X011823Y005604D02*
X011683Y005604D01*
X011683Y005511D02*
X011683Y005791D01*
X011823Y005791D01*
X011870Y005744D01*
X011870Y005651D01*
X011823Y005604D01*
X011959Y005791D02*
X012146Y005511D01*
D12*
X011728Y005193D02*
X011606Y005101D01*
X011606Y004920D01*
X011728Y005015D02*
X011612Y005091D01*
X011606Y005101D02*
X011606Y005282D01*
X011606Y006420D02*
X011606Y006601D01*
X011728Y006693D01*
X011606Y006782D02*
X011606Y006601D01*
X011612Y006591D02*
X011728Y006515D01*
X014701Y006728D02*
X014701Y006294D01*
X014701Y006728D02*
X014858Y006885D01*
X015488Y006885D01*
X015646Y006728D01*
X015646Y006294D01*
X015646Y005507D02*
X015646Y004917D01*
X014701Y004917D01*
X014701Y005507D01*
X021701Y005585D02*
X021701Y004994D01*
X021701Y005585D02*
X022646Y005585D01*
X022646Y004994D01*
X022646Y004207D02*
X022646Y003774D01*
X022488Y003617D01*
X021858Y003617D01*
X021701Y003774D01*
X021701Y004207D01*
X023271Y003538D02*
X023271Y015664D01*
X025373Y015664D01*
X019557Y015573D02*
X019557Y014628D01*
X018967Y014628D01*
X018179Y014628D02*
X017746Y014628D01*
X017589Y014786D01*
X017589Y015416D01*
X017746Y015573D01*
X018179Y015573D01*
X018967Y015573D02*
X019557Y015573D01*
X019400Y016328D02*
X018967Y016328D01*
X019400Y016328D02*
X019557Y016486D01*
X019557Y017116D01*
X019400Y017273D01*
X018967Y017273D01*
X018179Y017273D02*
X017589Y017273D01*
X017589Y016328D01*
X018179Y016328D01*
X010357Y016328D02*
X009767Y016328D01*
X010357Y016328D02*
X010357Y017273D01*
X009767Y017273D01*
X008979Y017273D02*
X008546Y017273D01*
X008389Y017116D01*
X008389Y016486D01*
X008546Y016328D01*
X008979Y016328D01*
X006372Y011963D02*
X004837Y011963D01*
X006372Y011963D02*
X006372Y007239D01*
X004837Y007239D01*
X003183Y007239D02*
X001687Y007239D01*
X001687Y011963D02*
X003183Y011963D01*
X021701Y008085D02*
X021701Y007494D01*
X021701Y008085D02*
X022646Y008085D01*
X022646Y007494D01*
X022646Y006707D02*
X022646Y006274D01*
X022488Y006117D01*
X021858Y006117D01*
X021701Y006274D01*
X021701Y006707D01*
X023271Y003538D02*
X025373Y003538D01*
D13*
X022573Y004451D02*
X021773Y004451D01*
X021773Y006951D02*
X022573Y006951D01*
X026929Y009018D02*
X027380Y009318D01*
X027380Y009478D02*
X027380Y009779D01*
X027380Y009629D02*
X026929Y009629D01*
X027079Y009478D01*
X026929Y009318D02*
X027380Y009018D01*
X020366Y013826D02*
X020065Y013826D01*
X020366Y014126D01*
X020366Y014201D01*
X020290Y014276D01*
X020140Y014276D01*
X020065Y014201D01*
X019905Y014201D02*
X019830Y014276D01*
X019680Y014276D01*
X019605Y014201D01*
X019605Y013901D01*
X019680Y013826D01*
X019830Y013826D01*
X019905Y013901D01*
X019448Y013826D02*
X019298Y013826D01*
X019373Y013826D02*
X019373Y014276D01*
X019298Y014276D02*
X019448Y014276D01*
X018423Y014701D02*
X018423Y015501D01*
X018723Y016401D02*
X018723Y017201D01*
X009223Y017201D02*
X009223Y016401D01*
X014773Y006051D02*
X015573Y006051D01*
D14*
X017203Y006701D02*
X017203Y013501D01*
X017205Y013524D01*
X017210Y013547D01*
X017219Y013569D01*
X017232Y013589D01*
X017247Y013607D01*
X017265Y013622D01*
X017285Y013635D01*
X017307Y013644D01*
X017330Y013649D01*
X017353Y013651D01*
X018173Y013651D01*
X019173Y013651D01*
X019993Y013651D01*
X020016Y013649D01*
X020039Y013644D01*
X020061Y013635D01*
X020081Y013622D01*
X020099Y013607D01*
X020114Y013589D01*
X020127Y013569D01*
X020136Y013547D01*
X020141Y013524D01*
X020143Y013501D01*
X020143Y006701D01*
X020141Y006678D01*
X020136Y006655D01*
X020127Y006633D01*
X020114Y006613D01*
X020099Y006595D01*
X020081Y006580D01*
X020061Y006567D01*
X020039Y006558D01*
X020016Y006553D01*
X019993Y006551D01*
X017353Y006551D01*
X017330Y006553D01*
X017307Y006558D01*
X017285Y006567D01*
X017265Y006580D01*
X017247Y006595D01*
X017232Y006613D01*
X017219Y006633D01*
X017210Y006655D01*
X017205Y006678D01*
X017203Y006701D01*
X013291Y006837D02*
X013055Y006837D01*
X013055Y006365D02*
X013291Y006365D01*
X013291Y005337D02*
X013055Y005337D01*
X013055Y004865D02*
X013291Y004865D01*
X010825Y008054D02*
X008521Y008054D01*
X008521Y012148D01*
X010825Y012148D01*
X010825Y008054D01*
X012337Y008583D02*
X012337Y008819D01*
X012809Y008819D02*
X012809Y008583D01*
X008724Y011764D02*
X008726Y011790D01*
X008732Y011816D01*
X008741Y011841D01*
X008754Y011864D01*
X008770Y011885D01*
X008789Y011903D01*
X008811Y011919D01*
X008834Y011931D01*
X008859Y011939D01*
X008885Y011944D01*
X008912Y011945D01*
X008938Y011942D01*
X008963Y011935D01*
X008988Y011925D01*
X009010Y011911D01*
X009031Y011894D01*
X009048Y011875D01*
X009063Y011853D01*
X009074Y011829D01*
X009082Y011803D01*
X009086Y011777D01*
X009086Y011751D01*
X009082Y011725D01*
X009074Y011699D01*
X009063Y011675D01*
X009048Y011653D01*
X009031Y011634D01*
X009010Y011617D01*
X008988Y011603D01*
X008963Y011593D01*
X008938Y011586D01*
X008912Y011583D01*
X008885Y011584D01*
X008859Y011589D01*
X008834Y011597D01*
X008811Y011609D01*
X008789Y011625D01*
X008770Y011643D01*
X008754Y011664D01*
X008741Y011687D01*
X008732Y011712D01*
X008726Y011738D01*
X008724Y011764D01*
X009255Y013865D02*
X009491Y013865D01*
X009491Y014337D02*
X009255Y014337D01*
X009255Y015065D02*
X009491Y015065D01*
X009491Y015537D02*
X009255Y015537D01*
X018173Y013651D02*
X018175Y013607D01*
X018181Y013564D01*
X018190Y013522D01*
X018203Y013480D01*
X018220Y013440D01*
X018240Y013401D01*
X018263Y013364D01*
X018290Y013330D01*
X018319Y013297D01*
X018352Y013268D01*
X018386Y013241D01*
X018423Y013218D01*
X018462Y013198D01*
X018502Y013181D01*
X018544Y013168D01*
X018586Y013159D01*
X018629Y013153D01*
X018673Y013151D01*
X018717Y013153D01*
X018760Y013159D01*
X018802Y013168D01*
X018844Y013181D01*
X018884Y013198D01*
X018923Y013218D01*
X018960Y013241D01*
X018994Y013268D01*
X019027Y013297D01*
X019056Y013330D01*
X019083Y013364D01*
X019106Y013401D01*
X019126Y013440D01*
X019143Y013480D01*
X019156Y013522D01*
X019165Y013564D01*
X019171Y013607D01*
X019173Y013651D01*
D15*
X017506Y015502D02*
X017531Y015527D01*
X017531Y015552D01*
X017506Y015577D01*
X017431Y015577D01*
X017431Y015527D01*
X017456Y015502D01*
X017506Y015502D01*
X017431Y015577D02*
X017481Y015627D01*
X017531Y015652D01*
X017384Y015627D02*
X017358Y015652D01*
X017308Y015652D01*
X017283Y015627D01*
X017283Y015527D01*
X017308Y015502D01*
X017358Y015502D01*
X017384Y015527D01*
X019578Y016174D02*
X019603Y016149D01*
X019653Y016149D01*
X019678Y016174D01*
X019725Y016174D02*
X019750Y016149D01*
X019800Y016149D01*
X019825Y016174D01*
X019825Y016225D01*
X019800Y016250D01*
X019775Y016250D01*
X019725Y016225D01*
X019725Y016300D01*
X019825Y016300D01*
X019678Y016275D02*
X019653Y016300D01*
X019603Y016300D01*
X019578Y016275D01*
X019578Y016174D01*
X008725Y015756D02*
X008725Y015731D01*
X008700Y015706D01*
X008725Y015681D01*
X008725Y015656D01*
X008700Y015631D01*
X008650Y015631D01*
X008625Y015656D01*
X008578Y015656D02*
X008553Y015631D01*
X008503Y015631D01*
X008478Y015656D01*
X008478Y015756D01*
X008503Y015781D01*
X008553Y015781D01*
X008578Y015756D01*
X008625Y015756D02*
X008650Y015781D01*
X008700Y015781D01*
X008725Y015756D01*
X008700Y015706D02*
X008675Y015706D01*
X008650Y014581D02*
X008625Y014556D01*
X008650Y014581D02*
X008700Y014581D01*
X008725Y014556D01*
X008725Y014531D01*
X008625Y014431D01*
X008725Y014431D01*
X008578Y014456D02*
X008553Y014431D01*
X008503Y014431D01*
X008478Y014456D01*
X008478Y014556D01*
X008503Y014581D01*
X008553Y014581D01*
X008578Y014556D01*
X008306Y017402D02*
X008306Y017552D01*
X008231Y017477D01*
X008331Y017477D01*
X008184Y017427D02*
X008158Y017402D01*
X008108Y017402D01*
X008083Y017427D01*
X008083Y017527D01*
X008108Y017552D01*
X008158Y017552D01*
X008184Y017527D01*
X012093Y009103D02*
X012243Y009103D01*
X012243Y009053D02*
X012243Y009153D01*
X012143Y009053D02*
X012093Y009103D01*
X012118Y009006D02*
X012093Y008981D01*
X012093Y008931D01*
X012118Y008906D01*
X012218Y008906D01*
X012243Y008931D01*
X012243Y008981D01*
X012218Y009006D01*
X010931Y006821D02*
X010931Y006671D01*
X010881Y006671D02*
X010981Y006671D01*
X010881Y006771D02*
X010931Y006821D01*
X010834Y006796D02*
X010808Y006821D01*
X010733Y006821D01*
X010733Y006671D01*
X010808Y006671D01*
X010834Y006696D01*
X010834Y006796D01*
X010686Y006821D02*
X010586Y006821D01*
X010586Y006671D01*
X010686Y006671D01*
X010636Y006746D02*
X010586Y006746D01*
X010539Y006671D02*
X010439Y006671D01*
X010439Y006821D01*
X010439Y005321D02*
X010439Y005171D01*
X010539Y005171D01*
X010586Y005171D02*
X010686Y005171D01*
X010733Y005171D02*
X010808Y005171D01*
X010834Y005196D01*
X010834Y005296D01*
X010808Y005321D01*
X010733Y005321D01*
X010733Y005171D01*
X010636Y005246D02*
X010586Y005246D01*
X010586Y005321D02*
X010586Y005171D01*
X010586Y005321D02*
X010686Y005321D01*
X010881Y005296D02*
X010906Y005321D01*
X010956Y005321D01*
X010981Y005296D01*
X010981Y005271D01*
X010881Y005171D01*
X010981Y005171D01*
X013878Y005181D02*
X013953Y005181D01*
X013978Y005206D01*
X013978Y005256D01*
X013953Y005281D01*
X013878Y005281D01*
X013878Y005131D01*
X013928Y005181D02*
X013978Y005131D01*
X014025Y005131D02*
X014125Y005231D01*
X014125Y005256D01*
X014100Y005281D01*
X014050Y005281D01*
X014025Y005256D01*
X014025Y005131D02*
X014125Y005131D01*
X014125Y006431D02*
X014025Y006431D01*
X013978Y006431D02*
X013928Y006481D01*
X013953Y006481D02*
X013878Y006481D01*
X013878Y006431D02*
X013878Y006581D01*
X013953Y006581D01*
X013978Y006556D01*
X013978Y006506D01*
X013953Y006481D01*
X014025Y006531D02*
X014075Y006581D01*
X014075Y006431D01*
X015583Y007027D02*
X015608Y007002D01*
X015658Y007002D01*
X015684Y007027D01*
X015731Y007027D02*
X015731Y007002D01*
X015731Y007027D02*
X015831Y007127D01*
X015831Y007152D01*
X015731Y007152D01*
X015684Y007127D02*
X015658Y007152D01*
X015608Y007152D01*
X015583Y007127D01*
X015583Y007027D01*
X021422Y006634D02*
X021422Y006583D01*
X021447Y006558D01*
X021472Y006558D01*
X021497Y006583D01*
X021497Y006659D01*
X021547Y006659D02*
X021447Y006659D01*
X021422Y006634D01*
X021447Y006511D02*
X021422Y006486D01*
X021422Y006436D01*
X021447Y006411D01*
X021547Y006411D01*
X021572Y006436D01*
X021572Y006486D01*
X021547Y006511D01*
X021547Y006558D02*
X021572Y006583D01*
X021572Y006634D01*
X021547Y006659D01*
X021522Y003959D02*
X021547Y003959D01*
X021572Y003934D01*
X021572Y003883D01*
X021547Y003858D01*
X021522Y003858D01*
X021497Y003883D01*
X021497Y003934D01*
X021522Y003959D01*
X021497Y003934D02*
X021472Y003959D01*
X021447Y003959D01*
X021422Y003934D01*
X021422Y003883D01*
X021447Y003858D01*
X021472Y003858D01*
X021497Y003883D01*
X021547Y003811D02*
X021572Y003786D01*
X021572Y003736D01*
X021547Y003711D01*
X021447Y003711D01*
X021422Y003736D01*
X021422Y003786D01*
X021447Y003811D01*
D16*
X020168Y006851D03*
X020168Y007351D03*
X020168Y007851D03*
X020168Y008351D03*
X020168Y008851D03*
X020168Y009351D03*
X020168Y009851D03*
X020168Y010351D03*
X020168Y010851D03*
X020168Y011351D03*
X020168Y011851D03*
X020168Y012351D03*
X020168Y012851D03*
X020168Y013351D03*
X017178Y013351D03*
X017178Y012851D03*
X017178Y012351D03*
X017178Y011851D03*
X017178Y011351D03*
X017178Y010851D03*
X017178Y010351D03*
X017178Y009851D03*
X017178Y009351D03*
X017178Y008851D03*
X017178Y008351D03*
X017178Y007851D03*
X017178Y007351D03*
X017178Y006851D03*
M02*
