G75*
G70*
%OFA0B0*%
%FSLAX24Y24*%
%IPPOS*%
%LPD*%
%AMOC8*
5,1,8,0,0,1.08239X$1,22.5*
%
%ADD10R,0.0740X0.0740*%
%ADD11C,0.0740*%
%ADD12C,0.2000*%
%ADD13C,0.0660*%
%ADD14C,0.1300*%
%ADD15C,0.0100*%
%ADD16C,0.0400*%
D10*
X023814Y011782D03*
D11*
X024932Y011235D03*
X023814Y010691D03*
X024932Y010144D03*
X023814Y009601D03*
X024932Y009057D03*
X023814Y008510D03*
X024932Y007967D03*
X023814Y007420D03*
D12*
X024373Y004680D03*
X024373Y014522D03*
D13*
X005853Y010093D03*
X005073Y010093D03*
X005073Y009109D03*
X005853Y009109D03*
D14*
X004003Y007231D03*
X004003Y011971D03*
D15*
X008873Y008141D02*
X011273Y005741D01*
X017273Y005741D01*
X017873Y008261D02*
X017873Y013901D01*
X017993Y014021D01*
X018713Y014381D02*
X018713Y012701D01*
X019553Y012461D02*
X019553Y012101D01*
X019433Y011981D01*
X019553Y012461D02*
X019793Y012701D01*
X025433Y012701D01*
X025433Y010661D01*
X024953Y010181D01*
X024932Y010144D01*
X025193Y009581D02*
X025673Y010061D01*
X025673Y013061D01*
X019913Y013061D01*
X019913Y012341D02*
X024353Y012341D01*
X024353Y011261D01*
X023873Y010781D01*
X023814Y010691D01*
X023273Y010541D02*
X023273Y007901D01*
X023753Y007421D01*
X023814Y007420D01*
X024353Y008021D02*
X023873Y008501D01*
X023814Y008510D01*
X024353Y008021D02*
X024353Y006341D01*
X022673Y006341D01*
X019793Y009221D01*
X017513Y010661D02*
X015953Y012221D01*
X015953Y011021D02*
X014393Y012581D01*
X013673Y012821D02*
X015953Y010541D01*
X015233Y010781D02*
X010553Y010781D01*
X010193Y010421D01*
X010193Y010181D01*
X009233Y009221D01*
X008873Y009341D02*
X008873Y008141D01*
X008873Y009341D02*
X007673Y010541D01*
X008033Y010901D02*
X006353Y010901D01*
X006353Y009701D01*
X005873Y009221D01*
X005853Y009109D01*
X005073Y009109D02*
X005033Y009221D01*
X004553Y009701D01*
X004553Y010661D01*
X005153Y010661D01*
X008153Y013661D01*
X010313Y014381D02*
X018713Y014381D01*
X019073Y014501D02*
X019073Y011621D01*
X017513Y011621D02*
X017513Y013181D01*
X012593Y013181D01*
X009953Y010541D01*
X009953Y010421D01*
X009593Y010061D01*
X009233Y009701D02*
X008033Y010901D01*
X007433Y011501D02*
X010313Y014381D01*
X010553Y010301D02*
X010553Y008741D01*
X011273Y008021D01*
X011753Y006461D02*
X011753Y010181D01*
X011753Y006461D02*
X011393Y006101D01*
X022793Y007181D02*
X022793Y010781D01*
X023753Y011741D01*
X023814Y011782D01*
X023153Y010661D02*
X023273Y010541D01*
X023814Y009601D02*
X023873Y009581D01*
X025193Y009581D01*
D16*
X023153Y010661D03*
X019913Y012341D03*
X019433Y011981D03*
X019073Y011621D03*
X018713Y012701D03*
X019913Y013061D03*
X017993Y014021D03*
X019073Y014501D03*
X015953Y012221D03*
X014393Y012581D03*
X013673Y012821D03*
X015953Y011021D03*
X015233Y010781D03*
X015953Y010541D03*
X017513Y010661D03*
X017513Y011621D03*
X019793Y009221D03*
X017873Y008261D03*
X017273Y005741D03*
X022793Y007181D03*
X011753Y010181D03*
X010553Y010301D03*
X009593Y010061D03*
X009233Y009701D03*
X009233Y009221D03*
X007673Y010541D03*
X007433Y011501D03*
X008153Y013661D03*
X011273Y008021D03*
X011393Y006101D03*
M02*
