G75*
G70*
%OFA0B0*%
%FSLAX24Y24*%
%IPPOS*%
%LPD*%
%AMOC8*
5,1,8,0,0,1.08239X$1,22.5*
%
%ADD10C,0.0000*%
%ADD11R,0.0740X0.0740*%
%ADD12C,0.0740*%
%ADD13C,0.2000*%
%ADD14R,0.0550X0.0137*%
%ADD15R,0.0472X0.0315*%
%ADD16R,0.0315X0.0472*%
%ADD17R,0.0551X0.0630*%
%ADD18R,0.0315X0.0315*%
%ADD19C,0.0660*%
%ADD20C,0.1300*%
%ADD21R,0.0800X0.0260*%
%ADD22R,0.0630X0.0551*%
%ADD23C,0.0100*%
%ADD24C,0.0400*%
D10*
X001673Y000101D02*
X001673Y019097D01*
X028043Y019097D01*
X028043Y000101D01*
X001673Y000101D01*
X002523Y001601D02*
X002525Y001651D01*
X002531Y001701D01*
X002541Y001751D01*
X002554Y001799D01*
X002571Y001847D01*
X002592Y001893D01*
X002616Y001937D01*
X002644Y001979D01*
X002675Y002019D01*
X002709Y002056D01*
X002746Y002091D01*
X002785Y002122D01*
X002826Y002151D01*
X002870Y002176D01*
X002916Y002198D01*
X002963Y002216D01*
X003011Y002230D01*
X003060Y002241D01*
X003110Y002248D01*
X003160Y002251D01*
X003211Y002250D01*
X003261Y002245D01*
X003311Y002236D01*
X003359Y002224D01*
X003407Y002207D01*
X003453Y002187D01*
X003498Y002164D01*
X003541Y002137D01*
X003581Y002107D01*
X003619Y002074D01*
X003654Y002038D01*
X003687Y001999D01*
X003716Y001958D01*
X003742Y001915D01*
X003765Y001870D01*
X003784Y001823D01*
X003799Y001775D01*
X003811Y001726D01*
X003819Y001676D01*
X003823Y001626D01*
X003823Y001576D01*
X003819Y001526D01*
X003811Y001476D01*
X003799Y001427D01*
X003784Y001379D01*
X003765Y001332D01*
X003742Y001287D01*
X003716Y001244D01*
X003687Y001203D01*
X003654Y001164D01*
X003619Y001128D01*
X003581Y001095D01*
X003541Y001065D01*
X003498Y001038D01*
X003453Y001015D01*
X003407Y000995D01*
X003359Y000978D01*
X003311Y000966D01*
X003261Y000957D01*
X003211Y000952D01*
X003160Y000951D01*
X003110Y000954D01*
X003060Y000961D01*
X003011Y000972D01*
X002963Y000986D01*
X002916Y001004D01*
X002870Y001026D01*
X002826Y001051D01*
X002785Y001080D01*
X002746Y001111D01*
X002709Y001146D01*
X002675Y001183D01*
X002644Y001223D01*
X002616Y001265D01*
X002592Y001309D01*
X002571Y001355D01*
X002554Y001403D01*
X002541Y001451D01*
X002531Y001501D01*
X002525Y001551D01*
X002523Y001601D01*
X026023Y001601D02*
X026025Y001651D01*
X026031Y001701D01*
X026041Y001751D01*
X026054Y001799D01*
X026071Y001847D01*
X026092Y001893D01*
X026116Y001937D01*
X026144Y001979D01*
X026175Y002019D01*
X026209Y002056D01*
X026246Y002091D01*
X026285Y002122D01*
X026326Y002151D01*
X026370Y002176D01*
X026416Y002198D01*
X026463Y002216D01*
X026511Y002230D01*
X026560Y002241D01*
X026610Y002248D01*
X026660Y002251D01*
X026711Y002250D01*
X026761Y002245D01*
X026811Y002236D01*
X026859Y002224D01*
X026907Y002207D01*
X026953Y002187D01*
X026998Y002164D01*
X027041Y002137D01*
X027081Y002107D01*
X027119Y002074D01*
X027154Y002038D01*
X027187Y001999D01*
X027216Y001958D01*
X027242Y001915D01*
X027265Y001870D01*
X027284Y001823D01*
X027299Y001775D01*
X027311Y001726D01*
X027319Y001676D01*
X027323Y001626D01*
X027323Y001576D01*
X027319Y001526D01*
X027311Y001476D01*
X027299Y001427D01*
X027284Y001379D01*
X027265Y001332D01*
X027242Y001287D01*
X027216Y001244D01*
X027187Y001203D01*
X027154Y001164D01*
X027119Y001128D01*
X027081Y001095D01*
X027041Y001065D01*
X026998Y001038D01*
X026953Y001015D01*
X026907Y000995D01*
X026859Y000978D01*
X026811Y000966D01*
X026761Y000957D01*
X026711Y000952D01*
X026660Y000951D01*
X026610Y000954D01*
X026560Y000961D01*
X026511Y000972D01*
X026463Y000986D01*
X026416Y001004D01*
X026370Y001026D01*
X026326Y001051D01*
X026285Y001080D01*
X026246Y001111D01*
X026209Y001146D01*
X026175Y001183D01*
X026144Y001223D01*
X026116Y001265D01*
X026092Y001309D01*
X026071Y001355D01*
X026054Y001403D01*
X026041Y001451D01*
X026031Y001501D01*
X026025Y001551D01*
X026023Y001601D01*
X026023Y017601D02*
X026025Y017651D01*
X026031Y017701D01*
X026041Y017751D01*
X026054Y017799D01*
X026071Y017847D01*
X026092Y017893D01*
X026116Y017937D01*
X026144Y017979D01*
X026175Y018019D01*
X026209Y018056D01*
X026246Y018091D01*
X026285Y018122D01*
X026326Y018151D01*
X026370Y018176D01*
X026416Y018198D01*
X026463Y018216D01*
X026511Y018230D01*
X026560Y018241D01*
X026610Y018248D01*
X026660Y018251D01*
X026711Y018250D01*
X026761Y018245D01*
X026811Y018236D01*
X026859Y018224D01*
X026907Y018207D01*
X026953Y018187D01*
X026998Y018164D01*
X027041Y018137D01*
X027081Y018107D01*
X027119Y018074D01*
X027154Y018038D01*
X027187Y017999D01*
X027216Y017958D01*
X027242Y017915D01*
X027265Y017870D01*
X027284Y017823D01*
X027299Y017775D01*
X027311Y017726D01*
X027319Y017676D01*
X027323Y017626D01*
X027323Y017576D01*
X027319Y017526D01*
X027311Y017476D01*
X027299Y017427D01*
X027284Y017379D01*
X027265Y017332D01*
X027242Y017287D01*
X027216Y017244D01*
X027187Y017203D01*
X027154Y017164D01*
X027119Y017128D01*
X027081Y017095D01*
X027041Y017065D01*
X026998Y017038D01*
X026953Y017015D01*
X026907Y016995D01*
X026859Y016978D01*
X026811Y016966D01*
X026761Y016957D01*
X026711Y016952D01*
X026660Y016951D01*
X026610Y016954D01*
X026560Y016961D01*
X026511Y016972D01*
X026463Y016986D01*
X026416Y017004D01*
X026370Y017026D01*
X026326Y017051D01*
X026285Y017080D01*
X026246Y017111D01*
X026209Y017146D01*
X026175Y017183D01*
X026144Y017223D01*
X026116Y017265D01*
X026092Y017309D01*
X026071Y017355D01*
X026054Y017403D01*
X026041Y017451D01*
X026031Y017501D01*
X026025Y017551D01*
X026023Y017601D01*
X003023Y017601D02*
X003025Y017651D01*
X003031Y017701D01*
X003041Y017751D01*
X003054Y017799D01*
X003071Y017847D01*
X003092Y017893D01*
X003116Y017937D01*
X003144Y017979D01*
X003175Y018019D01*
X003209Y018056D01*
X003246Y018091D01*
X003285Y018122D01*
X003326Y018151D01*
X003370Y018176D01*
X003416Y018198D01*
X003463Y018216D01*
X003511Y018230D01*
X003560Y018241D01*
X003610Y018248D01*
X003660Y018251D01*
X003711Y018250D01*
X003761Y018245D01*
X003811Y018236D01*
X003859Y018224D01*
X003907Y018207D01*
X003953Y018187D01*
X003998Y018164D01*
X004041Y018137D01*
X004081Y018107D01*
X004119Y018074D01*
X004154Y018038D01*
X004187Y017999D01*
X004216Y017958D01*
X004242Y017915D01*
X004265Y017870D01*
X004284Y017823D01*
X004299Y017775D01*
X004311Y017726D01*
X004319Y017676D01*
X004323Y017626D01*
X004323Y017576D01*
X004319Y017526D01*
X004311Y017476D01*
X004299Y017427D01*
X004284Y017379D01*
X004265Y017332D01*
X004242Y017287D01*
X004216Y017244D01*
X004187Y017203D01*
X004154Y017164D01*
X004119Y017128D01*
X004081Y017095D01*
X004041Y017065D01*
X003998Y017038D01*
X003953Y017015D01*
X003907Y016995D01*
X003859Y016978D01*
X003811Y016966D01*
X003761Y016957D01*
X003711Y016952D01*
X003660Y016951D01*
X003610Y016954D01*
X003560Y016961D01*
X003511Y016972D01*
X003463Y016986D01*
X003416Y017004D01*
X003370Y017026D01*
X003326Y017051D01*
X003285Y017080D01*
X003246Y017111D01*
X003209Y017146D01*
X003175Y017183D01*
X003144Y017223D01*
X003116Y017265D01*
X003092Y017309D01*
X003071Y017355D01*
X003054Y017403D01*
X003041Y017451D01*
X003031Y017501D01*
X003025Y017551D01*
X003023Y017601D01*
D11*
X023814Y011782D03*
D12*
X024932Y011235D03*
X023814Y010691D03*
X024932Y010144D03*
X023814Y009601D03*
X024932Y009057D03*
X023814Y008510D03*
X024932Y007967D03*
X023814Y007420D03*
D13*
X024373Y004680D03*
X024373Y014522D03*
D14*
X011112Y011764D03*
X011112Y011508D03*
X011112Y011252D03*
X011112Y010996D03*
X011112Y010741D03*
X011112Y010485D03*
X011112Y010229D03*
X011112Y009973D03*
X011112Y009717D03*
X011112Y009461D03*
X011112Y009205D03*
X011112Y008949D03*
X011112Y008693D03*
X011112Y008437D03*
X008234Y008437D03*
X008234Y008693D03*
X008234Y008949D03*
X008234Y009205D03*
X008234Y009461D03*
X008234Y009717D03*
X008234Y009973D03*
X008234Y010229D03*
X008234Y010485D03*
X008234Y010741D03*
X008234Y010996D03*
X008234Y011252D03*
X008234Y011508D03*
X008234Y011764D03*
D15*
X012573Y009055D03*
X012573Y008346D03*
D16*
X012819Y006601D03*
X013527Y006601D03*
X013527Y005101D03*
X012819Y005101D03*
X009727Y014101D03*
X009019Y014101D03*
X009019Y015301D03*
X009727Y015301D03*
D17*
X009924Y016801D03*
X008822Y016801D03*
X018022Y016801D03*
X019124Y016801D03*
X019124Y015101D03*
X018022Y015101D03*
D18*
X011968Y006601D03*
X011378Y006601D03*
X011378Y005101D03*
X011968Y005101D03*
D19*
X005853Y009109D03*
X005073Y009109D03*
X005073Y010093D03*
X005853Y010093D03*
D20*
X004003Y011971D03*
X004003Y007231D03*
D21*
X016693Y007351D03*
X016693Y007851D03*
X016693Y008351D03*
X016693Y008851D03*
X016693Y009351D03*
X016693Y009851D03*
X016693Y010351D03*
X016693Y010851D03*
X016693Y011351D03*
X016693Y011851D03*
X016693Y012351D03*
X016693Y012851D03*
X016693Y013351D03*
X020653Y013351D03*
X020653Y012851D03*
X020653Y012351D03*
X020653Y011851D03*
X020653Y011351D03*
X020653Y010851D03*
X020653Y010351D03*
X020653Y009851D03*
X020653Y009351D03*
X020653Y008851D03*
X020653Y008351D03*
X020653Y007851D03*
X020653Y007351D03*
X020653Y006851D03*
X016693Y006851D03*
D22*
X015173Y006452D03*
X015173Y005350D03*
X022173Y005152D03*
X022173Y004050D03*
X022173Y006550D03*
X022173Y007652D03*
D23*
X022073Y007661D01*
X021953Y007781D01*
X020753Y007781D01*
X020653Y007851D01*
X020653Y007351D02*
X020633Y007301D01*
X020033Y007301D01*
X020033Y006701D01*
X020153Y006581D01*
X020753Y006581D01*
X022073Y005261D01*
X022173Y005152D01*
X022793Y004661D02*
X022793Y006101D01*
X021593Y006101D01*
X020873Y006821D01*
X020753Y006821D01*
X020653Y006851D01*
X022173Y006550D02*
X022433Y006821D01*
X023033Y006221D01*
X023033Y003581D01*
X018833Y003581D01*
X016553Y005861D01*
X015113Y004421D01*
X009833Y004421D01*
X005153Y009101D01*
X005073Y009109D01*
X005273Y009581D02*
X004553Y009581D01*
X004553Y010301D01*
X006113Y011861D01*
X007793Y011861D01*
X007793Y011141D01*
X007913Y011021D01*
X008153Y011021D01*
X008234Y010996D01*
X008273Y010781D02*
X008234Y010741D01*
X008273Y010781D02*
X009593Y010781D01*
X010793Y011981D01*
X013553Y011981D01*
X015593Y009941D01*
X016673Y009941D01*
X016693Y009851D01*
X016693Y010351D02*
X016673Y010421D01*
X016073Y010421D01*
X015953Y010541D01*
X016073Y010901D02*
X016673Y010901D01*
X016693Y010851D01*
X016073Y010901D02*
X015953Y011021D01*
X015833Y011381D02*
X016673Y011381D01*
X016693Y011351D01*
X016693Y011851D02*
X016793Y011861D01*
X016913Y011981D01*
X019433Y011981D01*
X019073Y011621D02*
X020633Y011621D01*
X020633Y011381D01*
X020653Y011351D01*
X020633Y011621D02*
X020633Y011741D01*
X020653Y011851D01*
X020653Y012351D02*
X020633Y012461D01*
X020273Y012461D01*
X020033Y012701D01*
X018713Y012701D01*
X019913Y013061D02*
X016913Y013061D01*
X016793Y012941D01*
X016693Y012851D01*
X016693Y012351D02*
X016793Y012341D01*
X019913Y012341D01*
X020653Y012851D02*
X020753Y012821D01*
X020873Y012701D01*
X024233Y012701D01*
X025433Y011501D01*
X025433Y008021D01*
X024953Y008021D01*
X024932Y007967D01*
X024713Y007421D02*
X024353Y007781D01*
X024353Y008981D01*
X024833Y008981D01*
X024932Y009057D01*
X024353Y009341D02*
X024353Y011141D01*
X024833Y011141D01*
X024932Y011235D01*
X025673Y011621D02*
X025673Y007421D01*
X024713Y007421D01*
X022793Y007181D02*
X022433Y006821D01*
X022193Y006581D01*
X022173Y006550D01*
X020753Y008381D02*
X020653Y008351D01*
X020753Y008381D02*
X020873Y008501D01*
X023033Y008501D01*
X023633Y009101D01*
X024113Y009101D01*
X024353Y009341D01*
X023153Y010661D02*
X020873Y010661D01*
X020753Y010781D01*
X020653Y010851D01*
X020633Y010421D02*
X020653Y010351D01*
X020633Y010421D02*
X018713Y010421D01*
X017513Y011621D01*
X017513Y010661D02*
X018233Y009941D01*
X020633Y009941D01*
X020653Y009851D01*
X020633Y009821D01*
X020633Y009461D01*
X020653Y009351D01*
X020653Y008851D02*
X020633Y008741D01*
X020273Y008741D01*
X017273Y005741D01*
X016553Y005861D02*
X018233Y007541D01*
X018233Y008741D01*
X016793Y008741D01*
X016693Y008851D01*
X016673Y008861D01*
X016553Y008981D01*
X012593Y008981D01*
X012573Y009055D01*
X012473Y009101D01*
X012353Y009221D01*
X012233Y009221D01*
X011513Y009941D01*
X011153Y009941D01*
X011112Y009973D01*
X011033Y009941D01*
X010433Y009941D01*
X010073Y010301D01*
X010793Y011021D01*
X011033Y011021D01*
X011112Y010996D01*
X011153Y011021D01*
X011153Y011261D01*
X011112Y011252D01*
X011033Y010541D02*
X011112Y010485D01*
X011033Y010541D02*
X010793Y010541D01*
X010553Y010301D01*
X010073Y010301D02*
X009953Y010421D01*
X009113Y010421D01*
X008873Y010181D01*
X008273Y010181D01*
X008234Y010229D01*
X008234Y010485D02*
X008153Y010541D01*
X007673Y010541D01*
X007313Y010301D02*
X007313Y011501D01*
X007433Y011501D01*
X007793Y011861D02*
X007793Y014021D01*
X008993Y014021D01*
X009019Y014101D01*
X008993Y014141D01*
X008993Y015221D01*
X009019Y015301D01*
X008993Y015341D01*
X008873Y015341D01*
X008873Y016781D01*
X008822Y016801D01*
X008873Y016901D01*
X009233Y017261D01*
X018713Y017261D01*
X019073Y016901D01*
X019124Y016801D01*
X019193Y016781D01*
X019193Y015101D01*
X019124Y015101D01*
X019073Y015101D01*
X019073Y014501D01*
X017993Y014021D02*
X017993Y015101D01*
X018022Y015101D01*
X017033Y013661D02*
X023633Y013661D01*
X025673Y011621D01*
X019793Y009221D02*
X016913Y009221D01*
X016793Y009341D01*
X016693Y009351D01*
X016693Y008351D02*
X016673Y008261D01*
X016553Y008141D01*
X014993Y008141D01*
X013553Y006701D01*
X013527Y006601D01*
X013553Y006581D01*
X013553Y005141D01*
X013527Y005101D01*
X013433Y005021D01*
X013073Y004661D01*
X010313Y004661D01*
X005873Y009101D01*
X005853Y009109D01*
X005753Y009221D01*
X005633Y009221D01*
X005273Y009581D01*
X005633Y009581D02*
X005153Y010061D01*
X005073Y010093D01*
X005633Y009581D02*
X006113Y009581D01*
X007793Y007901D01*
X010553Y007901D01*
X011033Y008381D01*
X011112Y008437D01*
X011112Y008693D02*
X011033Y008741D01*
X009113Y008741D01*
X008513Y008141D01*
X007913Y008141D01*
X005993Y010061D01*
X005873Y010061D01*
X005853Y010093D01*
X007313Y010301D02*
X007913Y009701D01*
X008153Y009701D01*
X008234Y009717D01*
X008234Y009461D02*
X008273Y009461D01*
X008513Y009461D01*
X009113Y010061D01*
X009593Y010061D01*
X009233Y009701D02*
X011033Y009701D01*
X011112Y009717D01*
X011153Y009221D02*
X011112Y009205D01*
X011153Y009221D02*
X012233Y009221D01*
X011873Y008981D02*
X011153Y008981D01*
X011112Y008949D01*
X011873Y008981D02*
X012473Y008381D01*
X012573Y008346D01*
X011273Y008021D02*
X011273Y006701D01*
X011378Y006601D01*
X011968Y006601D02*
X011993Y006581D01*
X012713Y006581D01*
X012819Y006601D01*
X011393Y006101D02*
X011393Y005141D01*
X011378Y005101D01*
X011968Y005101D02*
X011993Y005141D01*
X012713Y005141D01*
X012819Y005101D01*
X015173Y005350D02*
X015233Y005381D01*
X016673Y006821D01*
X016693Y006851D01*
X016693Y007351D02*
X016793Y007421D01*
X017033Y007421D01*
X017873Y008261D01*
X016693Y007851D02*
X016673Y007781D01*
X015233Y007781D01*
X015233Y006461D01*
X015173Y006452D01*
X009233Y009221D02*
X008273Y009221D01*
X008234Y009205D01*
X011112Y010229D02*
X011153Y010181D01*
X011753Y010181D01*
X009713Y011261D02*
X010673Y012221D01*
X015953Y012221D01*
X015833Y011381D02*
X015233Y010781D01*
X014273Y012461D02*
X014393Y012581D01*
X014273Y012461D02*
X010553Y012461D01*
X009593Y011501D01*
X008273Y011501D01*
X008234Y011508D01*
X008273Y011261D02*
X008234Y011252D01*
X008273Y011261D02*
X009713Y011261D01*
X008273Y011741D02*
X008234Y011764D01*
X008273Y011741D02*
X009353Y012821D01*
X013673Y012821D01*
X016693Y013351D02*
X016793Y013421D01*
X017033Y013661D01*
X018022Y016801D02*
X017993Y016901D01*
X009953Y016901D01*
X009924Y016801D01*
X009833Y016781D01*
X009833Y015341D01*
X009727Y015301D01*
X009713Y015221D01*
X009713Y014141D01*
X009727Y014101D01*
X009713Y014021D01*
X009353Y013661D01*
X008153Y013661D01*
X022193Y004061D02*
X022793Y004661D01*
X022193Y004061D02*
X022173Y004050D01*
D24*
X022793Y007181D03*
X019793Y009221D03*
X017873Y008261D03*
X015953Y010541D03*
X015233Y010781D03*
X015953Y011021D03*
X017513Y010661D03*
X017513Y011621D03*
X015953Y012221D03*
X014393Y012581D03*
X013673Y012821D03*
X011753Y010181D03*
X010553Y010301D03*
X009593Y010061D03*
X009233Y009701D03*
X009233Y009221D03*
X007673Y010541D03*
X007433Y011501D03*
X008153Y013661D03*
X011273Y008021D03*
X011393Y006101D03*
X017273Y005741D03*
X023153Y010661D03*
X019913Y012341D03*
X019433Y011981D03*
X019073Y011621D03*
X018713Y012701D03*
X019913Y013061D03*
X017993Y014021D03*
X019073Y014501D03*
M02*
