%
M48
M72
T01C0.0240
T02C0.0360
T03C0.0400
T04C0.0900
T05C0.1300
%
T01
X11393Y6101
X11273Y8021
X9233Y9221
X9233Y9701
X9593Y10061
X10553Y10301
X11753Y10181
X15233Y10781
X15953Y11021
X15953Y10541
X17513Y10661
X17513Y11621
X15953Y12221
X14393Y12581
X13673Y12821
X17993Y14021
X19073Y14501
X19913Y13061
X19913Y12341
X19433Y11981
X19073Y11621
X18713Y12701
X23153Y10661
X19793Y9221
X17873Y8261
X17273Y5741
X22793Y7181
X8153Y13661
X7433Y11501
X7673Y10541
T02
X5853Y10093
X5073Y10093
X5073Y9109
X5853Y9109
T03
X23814Y9601
X24932Y10144
X23814Y10691
X24932Y11235
X23814Y11782
X24932Y9057
X23814Y8510
X24932Y7967
X23814Y7420
T04
X4003Y7231
X4003Y11971
T05
X3173Y1601
X24373Y4680
X26673Y1601
X24373Y14522
X26673Y17601
X3673Y17601
M30
