G75*
G70*
%OFA0B0*%
%FSLAX24Y24*%
%IPPOS*%
%LPD*%
%AMOC8*
5,1,8,0,0,1.08239X$1,22.5*
%
%ADD10R,0.0550X0.0137*%
%ADD11R,0.0472X0.0315*%
%ADD12R,0.0315X0.0472*%
%ADD13R,0.0551X0.0630*%
%ADD14R,0.0315X0.0315*%
%ADD15R,0.0800X0.0260*%
%ADD16R,0.0630X0.0551*%
D10*
X008234Y008437D03*
X008234Y008693D03*
X008234Y008949D03*
X008234Y009205D03*
X008234Y009461D03*
X008234Y009717D03*
X008234Y009973D03*
X008234Y010229D03*
X008234Y010485D03*
X008234Y010741D03*
X008234Y010996D03*
X008234Y011252D03*
X008234Y011508D03*
X008234Y011764D03*
X011112Y011764D03*
X011112Y011508D03*
X011112Y011252D03*
X011112Y010996D03*
X011112Y010741D03*
X011112Y010485D03*
X011112Y010229D03*
X011112Y009973D03*
X011112Y009717D03*
X011112Y009461D03*
X011112Y009205D03*
X011112Y008949D03*
X011112Y008693D03*
X011112Y008437D03*
D11*
X012573Y008346D03*
X012573Y009055D03*
D12*
X012819Y006601D03*
X013527Y006601D03*
X013527Y005101D03*
X012819Y005101D03*
X009727Y014101D03*
X009019Y014101D03*
X009019Y015301D03*
X009727Y015301D03*
D13*
X009924Y016801D03*
X008822Y016801D03*
X018022Y016801D03*
X019124Y016801D03*
X019124Y015101D03*
X018022Y015101D03*
D14*
X011378Y005101D03*
X011968Y005101D03*
X011968Y006601D03*
X011378Y006601D03*
D15*
X016693Y006851D03*
X016693Y007351D03*
X016693Y007851D03*
X016693Y008351D03*
X016693Y008851D03*
X016693Y009351D03*
X016693Y009851D03*
X016693Y010351D03*
X016693Y010851D03*
X016693Y011351D03*
X016693Y011851D03*
X016693Y012351D03*
X016693Y012851D03*
X016693Y013351D03*
X020653Y013351D03*
X020653Y012851D03*
X020653Y012351D03*
X020653Y011851D03*
X020653Y011351D03*
X020653Y010851D03*
X020653Y010351D03*
X020653Y009851D03*
X020653Y009351D03*
X020653Y008851D03*
X020653Y008351D03*
X020653Y007851D03*
X020653Y007351D03*
X020653Y006851D03*
D16*
X022173Y006550D03*
X022173Y007652D03*
X022173Y005152D03*
X022173Y004050D03*
X015173Y005350D03*
X015173Y006452D03*
M02*
